<?xml version="1.0" encoding="utf-8"?>
<!-- Generator: Adobe Illustrator 23.0.3, SVG Export Plug-In . SVG Version: 6.00 Build 0)  -->
<svg version="1.1"
	 id="svg8609" inkscape:version="0.91 r13725" xmlns:cc="http://creativecommons.org/ns#" xmlns:dc="http://purl.org/dc/elements/1.1/" xmlns:inkscape="http://www.inkscape.org/namespaces/inkscape" xmlns:rdf="http://www.w3.org/1999/02/22-rdf-syntax-ns#" xmlns:sodipodi="http://sodipodi.sourceforge.net/DTD/sodipodi-0.dtd"
	 xmlns="http://www.w3.org/2000/svg" xmlns:xlink="http://www.w3.org/1999/xlink" x="0px" y="0px" width="590px" height="270px"
	 viewBox="0 0 590 270" style="enable-background:new 0 0 590 270;" xml:space="preserve">
<style type="text/css">
	.st0{fill:none;stroke:#34495E;stroke-width:2;stroke-linecap:round;stroke-linejoin:round;}
	.st1{fill:none;stroke:#34495E;stroke-width:2;stroke-linecap:round;stroke-linejoin:round;stroke-dasharray:2.8824,5.7648;}
	.st2{fill:none;stroke:#34495E;stroke-width:2;stroke-linecap:round;stroke-linejoin:round;stroke-dasharray:3.0745,6.1491;}
	.st3{fill:none;stroke:#1ABC9C;stroke-width:2;}
	.st4{fill:none;}
	.st5{fill:none;stroke:#34495E;stroke-width:2;}
	.st6{fill:none;stroke:#34495E;}
	.st7{fill:#C6EEE6;stroke:#1ABC9C;stroke-width:3;stroke-linecap:round;}
	.st8{fill:none;stroke:#1ABC9C;stroke-width:3;}
	.st9{fill:#34495E;}
	.st10{enable-background:new    ;}
	.st11{fill:none;stroke:#34495E;stroke-width:2;stroke-linecap:square;}
	.st12{fill:none;stroke:#34495E;stroke-width:2;stroke-linecap:round;stroke-linejoin:round;stroke-dasharray:2.9511,5.9022;}
	.st13{fill:none;stroke:#34495E;stroke-width:2;stroke-linecap:round;stroke-linejoin:round;stroke-dasharray:2.6877,5.3754;}
</style>
<g>
	<g>
		<line class="st0" x1="224.7" y1="115.3" x2="223.2" y2="115.3"/>
		<line class="st1" x1="217.4" y1="115.3" x2="116.6" y2="115.3"/>
		<polyline class="st0" points="113.7,115.3 112.2,115.3 112.4,115.3 110.9,115.3 		"/>
		<line class="st2" x1="104.7" y1="115.3" x2="43.2" y2="115.3"/>
		<line class="st0" x1="40.1" y1="115.3" x2="38.6" y2="115.3"/>
	</g>
</g>
<line class="st3" x1="197.6" y1="115.3" x2="432.6" y2="115.3"/>
<sodipodi:namedview  bordercolor="#666666" borderopacity="1.0" id="base" inkscape:current-layer="layer1" inkscape:cx="333.09524" inkscape:cy="44.951762" inkscape:document-units="px" inkscape:pageopacity="0.0" inkscape:pageshadow="2" inkscape:window-height="851" inkscape:window-maximized="1" inkscape:window-width="1440" inkscape:window-x="0" inkscape:window-y="1" inkscape:zoom="1" pagecolor="#ffffff" showgrid="false" units="px">
	</sodipodi:namedview>
<path class="st4" d=""/>
<path id="path9499" inkscape:connector-curvature="0" class="st3" d="M197.6,128v-25.3"/>
<path inkscape:connector-curvature="0" class="st5" d="M536.1,121.7v-13.6"/>
<path inkscape:connector-curvature="0" class="st5" d="M38.6,121.7v-13.6"/>
<path id="path9233" marker-end="url(#StopL)" marker-start="url(#StopL)" inkscape:connector-curvature="0" class="st6" d="
	M432.6,115.3"/>
<rect id="rect9832" x="225.1" y="76.8" class="st7" width="124" height="76.6"/>
<path id="path10858" inkscape:connector-curvature="0" class="st8" d="M286.8,75.9v76.6"/>
<g>
	<circle id="path10862" class="st9" cx="578.1" cy="114.9" r="4.3"/>
	<circle id="circle10876" class="st9" cx="546.7" cy="114.9" r="4.3"/>
</g>
<g class="st10">
	<path class="st9" d="M53.7,165.3v-10.7h1.2v10.7H53.7z"/>
	<path class="st9" d="M57.3,163.5c-0.3-0.6-0.5-1.3-0.5-2s0.2-1.4,0.5-2c0.3-0.6,0.8-1.1,1.3-1.5c0.6-0.4,1.3-0.5,2-0.5
		s1.4,0.2,2,0.5c0.6,0.4,1,0.9,1.3,1.5c0.3,0.6,0.5,1.3,0.5,2s-0.2,1.4-0.5,2s-0.8,1.1-1.3,1.5s-1.3,0.5-2,0.5s-1.4-0.2-2-0.5
		S57.6,164.1,57.3,163.5z M58.1,161.4c0,0.8,0.2,1.5,0.7,2.1c0.5,0.6,1.1,0.9,1.9,0.9c0.5,0,1-0.1,1.4-0.4c0.4-0.3,0.7-0.6,0.9-1.1
		c0.2-0.4,0.3-0.9,0.3-1.5c0-0.5-0.1-1-0.3-1.5c-0.2-0.4-0.5-0.8-0.9-1.1c-0.4-0.3-0.9-0.4-1.4-0.4s-1,0.1-1.4,0.4
		c-0.4,0.3-0.7,0.6-0.9,1.1C58.2,160.4,58.1,160.9,58.1,161.4z"/>
	<path class="st9" d="M65.4,157.6h1.3l1.9,6.1l2-6.1h1l2,6.2l1.9-6.2h1.3l-2.5,7.7h-1.2l-2-6.2l-2,6.2h-1.2L65.4,157.6z"/>
	<path class="st9" d="M77.7,161.4c0-0.7,0.2-1.4,0.5-2s0.8-1.1,1.4-1.5c0.6-0.4,1.2-0.5,2-0.5c0.8,0,1.4,0.2,2,0.6s1,0.9,1.3,1.5
		s0.4,1.3,0.4,2.1v0.3H79c0,0.8,0.3,1.4,0.8,1.9s1.1,0.8,2,0.8c0.5,0,0.9-0.1,1.3-0.3c0.4-0.2,0.8-0.4,1.1-0.7l0.6,0.8
		c-0.8,0.8-1.8,1.2-3.1,1.2c-1.2,0-2.1-0.4-2.8-1.1C78.1,163.6,77.7,162.6,77.7,161.4z M79,160.9H84c0-0.3-0.1-0.6-0.2-0.9
		c-0.1-0.3-0.3-0.6-0.5-0.8s-0.5-0.5-0.8-0.6c-0.3-0.2-0.7-0.2-1.1-0.2c-0.4,0-0.8,0.1-1.1,0.2s-0.6,0.4-0.8,0.6
		c-0.2,0.3-0.4,0.5-0.5,0.8C79.1,160.3,79,160.6,79,160.9z"/>
	<path class="st9" d="M87.2,165.3v-7.7h1.2v1.2c0.3-0.4,0.7-0.8,1.2-1c0.4-0.3,0.9-0.4,1.4-0.4v1.2c-0.2,0-0.3,0-0.5,0
		c-0.4,0-0.8,0.1-1.2,0.4c-0.4,0.3-0.7,0.5-0.9,0.9v5.5H87.2z"/>
	<path class="st9" d="M95.7,158.6v-1h1.3V157c0-0.8,0.2-1.4,0.6-1.8c0.4-0.4,0.9-0.7,1.6-0.7c0.7,0,1.2,0.2,1.6,0.6l-0.5,0.8
		c-0.3-0.2-0.6-0.4-0.9-0.4c-0.4,0-0.7,0.1-0.9,0.4c-0.2,0.3-0.3,0.6-0.3,1.1v0.6h1.6v1h-1.6v6.7h-1.2v-6.7H95.7z"/>
	<path class="st9" d="M100.7,161.4c0-0.7,0.2-1.4,0.5-2s0.8-1.1,1.4-1.5c0.6-0.4,1.2-0.5,2-0.5c0.8,0,1.4,0.2,2,0.6s1,0.9,1.3,1.5
		s0.4,1.3,0.4,2.1v0.3h-6.3c0,0.8,0.3,1.4,0.8,1.9s1.1,0.8,2,0.8c0.5,0,0.9-0.1,1.3-0.3c0.4-0.2,0.8-0.4,1.1-0.7l0.6,0.8
		c-0.8,0.8-1.8,1.2-3.1,1.2c-1.2,0-2.1-0.4-2.8-1.1C101,163.6,100.7,162.6,100.7,161.4z M101.9,160.9h5.1c0-0.3-0.1-0.6-0.2-0.9
		c-0.1-0.3-0.3-0.6-0.5-0.8s-0.5-0.5-0.8-0.6c-0.3-0.2-0.7-0.2-1.1-0.2c-0.4,0-0.8,0.1-1.1,0.2s-0.6,0.4-0.8,0.6
		c-0.2,0.3-0.4,0.5-0.5,0.8C102,160.3,101.9,160.6,101.9,160.9z"/>
	<path class="st9" d="M110.1,165.3v-7.7h1.2v1.1c0.3-0.4,0.7-0.7,1.2-0.9s1-0.4,1.6-0.4c1.6,0,2.5,0.8,2.5,2.5v5.4h-1.2v-5.1
		c0-0.7-0.2-1.1-0.5-1.4c-0.3-0.3-0.7-0.4-1.3-0.4c-0.4,0-0.9,0.1-1.3,0.4s-0.7,0.5-1,0.9v5.6H110.1z"/>
	<path class="st9" d="M118.5,161.4c0-0.8,0.2-1.4,0.5-2.1s0.8-1.1,1.4-1.5c0.6-0.4,1.3-0.5,2-0.5c1.2,0,2.1,0.4,2.8,1.3l-0.8,0.7
		c-0.5-0.7-1.1-1-2-1c-0.8,0-1.5,0.3-1.9,0.8c-0.5,0.6-0.7,1.3-0.7,2.1s0.2,1.6,0.7,2.2c0.5,0.6,1.1,0.8,1.9,0.8c0.8,0,1.5-0.3,2-1
		l0.8,0.7c-0.7,0.9-1.6,1.3-2.8,1.3c-1.1,0-2.1-0.4-2.8-1.2C118.9,163.6,118.5,162.6,118.5,161.4z"/>
	<path class="st9" d="M126.4,161.4c0-0.7,0.2-1.4,0.5-2s0.8-1.1,1.4-1.5c0.6-0.4,1.2-0.5,2-0.5c0.8,0,1.4,0.2,2,0.6s1,0.9,1.3,1.5
		s0.4,1.3,0.4,2.1v0.3h-6.3c0,0.8,0.3,1.4,0.8,1.9s1.1,0.8,2,0.8c0.5,0,0.9-0.1,1.3-0.3c0.4-0.2,0.8-0.4,1.1-0.7l0.6,0.8
		c-0.8,0.8-1.8,1.2-3.1,1.2c-1.2,0-2.1-0.4-2.8-1.1C126.8,163.6,126.4,162.6,126.4,161.4z M127.7,160.9h5.1c0-0.3-0.1-0.6-0.2-0.9
		c-0.1-0.3-0.3-0.6-0.5-0.8s-0.5-0.5-0.8-0.6c-0.3-0.2-0.7-0.2-1.1-0.2c-0.4,0-0.8,0.1-1.1,0.2s-0.6,0.4-0.8,0.6
		c-0.2,0.3-0.4,0.5-0.5,0.8C127.8,160.3,127.7,160.6,127.7,160.9z"/>
</g>
<g class="st10">
	<path class="st9" d="M7.8,184.1c0-0.7,0.2-1.4,0.5-2c0.3-0.6,0.8-1.1,1.4-1.5s1.2-0.5,2-0.5c0.8,0,1.4,0.2,2,0.6
		c0.6,0.4,1,0.9,1.3,1.5s0.4,1.3,0.4,2.1v0.3H9c0,0.8,0.3,1.4,0.8,1.9c0.5,0.5,1.1,0.8,2,0.8c0.5,0,0.9-0.1,1.3-0.3
		c0.4-0.2,0.8-0.4,1.1-0.7l0.6,0.8c-0.8,0.8-1.8,1.2-3.1,1.2c-1.2,0-2.1-0.4-2.8-1.1C8.1,186.3,7.8,185.3,7.8,184.1z M9,183.6h5.1
		c0-0.3-0.1-0.6-0.2-0.9c-0.1-0.3-0.3-0.6-0.5-0.8s-0.5-0.5-0.8-0.6c-0.3-0.2-0.7-0.2-1.1-0.2c-0.4,0-0.8,0.1-1.1,0.2
		c-0.3,0.2-0.6,0.4-0.8,0.6s-0.4,0.5-0.5,0.8C9.1,183,9,183.3,9,183.6z"/>
	<path class="st9" d="M16.7,184.1c0-1.2,0.3-2.2,0.9-3s1.5-1.1,2.5-1.1c0.5,0,1,0.1,1.5,0.4s0.8,0.6,1.1,1v-1.1H24v10.7h-1.2v-4.1
		c-0.3,0.4-0.7,0.8-1.2,1s-0.9,0.4-1.4,0.4c-1,0-1.9-0.4-2.5-1.1S16.7,185.4,16.7,184.1z M18.6,182c-0.4,0.6-0.7,1.3-0.7,2.1
		s0.2,1.6,0.7,2.2s1,0.8,1.8,0.8c0.5,0,0.9-0.1,1.3-0.4c0.4-0.2,0.8-0.5,1-0.9v-3.5c-0.2-0.3-0.5-0.6-1-0.9
		c-0.4-0.2-0.9-0.4-1.3-0.4C19.7,181.1,19.1,181.4,18.6,182z"/>
	<path class="st9" d="M26.4,185.7v-5.5h1.2v5.1c0,0.6,0.1,1.1,0.4,1.4c0.3,0.3,0.7,0.4,1.3,0.4c0.4,0,0.9-0.1,1.3-0.3
		c0.4-0.2,0.7-0.5,1-0.8v-5.7h1.2v7.7h-1.2v-1.1c-0.3,0.4-0.7,0.7-1.2,0.9s-1,0.4-1.5,0.4C27.2,188.2,26.4,187.4,26.4,185.7z"/>
	<path class="st9" d="M34.8,185.6c0-0.4,0.1-0.8,0.2-1.1c0.2-0.3,0.4-0.6,0.6-0.8s0.5-0.4,0.8-0.5s0.6-0.2,1-0.2c1.1,0,2,0.3,2.6,1
		v-1.4c0-0.5-0.2-0.9-0.5-1.2s-0.8-0.4-1.4-0.4c-0.9,0-1.7,0.4-2.4,1.1l-0.6-0.8c0.8-0.9,1.8-1.3,3.1-1.3c0.4,0,0.8,0,1.2,0.1
		c0.4,0.1,0.7,0.2,0.9,0.4c0.3,0.2,0.5,0.5,0.6,0.8c0.2,0.3,0.2,0.7,0.2,1.2v5.3H40v-0.9c-0.6,0.7-1.5,1.1-2.6,1.1
		c-0.3,0-0.6-0.1-1-0.2c-0.3-0.1-0.6-0.3-0.9-0.5c-0.3-0.2-0.5-0.5-0.6-0.8C34.8,186.4,34.8,186,34.8,185.6z M35.9,185.6
		c0,0.5,0.2,0.9,0.5,1.2s0.8,0.5,1.4,0.5c0.4,0,0.8-0.1,1.2-0.2c0.4-0.2,0.7-0.4,0.9-0.7v-1.5c-0.2-0.3-0.5-0.5-0.9-0.7
		c-0.4-0.2-0.8-0.2-1.2-0.2c-0.6,0-1,0.2-1.4,0.5S35.9,185.1,35.9,185.6z"/>
	<path class="st9" d="M42.5,181.3v-1h1.3v-2.1H45v2.1h1.6v1H45v4.8c0,0.3,0.1,0.5,0.2,0.7c0.1,0.2,0.3,0.3,0.6,0.3
		c0.4,0,0.6-0.1,0.8-0.3l0.4,0.9c-0.3,0.3-0.8,0.5-1.4,0.5c-0.6,0-1-0.2-1.3-0.5c-0.3-0.3-0.4-0.8-0.4-1.3v-5.1H42.5z"/>
	<path class="st9" d="M48.3,178.9c-0.2-0.2-0.2-0.3-0.2-0.6s0.1-0.4,0.2-0.6c0.2-0.2,0.4-0.2,0.6-0.2c0.2,0,0.4,0.1,0.6,0.2
		s0.2,0.4,0.2,0.6s-0.1,0.4-0.2,0.6s-0.3,0.2-0.6,0.2C48.7,179.2,48.5,179.1,48.3,178.9z M48.3,188v-7.7h1.2v7.7H48.3z"/>
	<path class="st9" d="M51.9,186.2c-0.3-0.6-0.5-1.3-0.5-2s0.2-1.4,0.5-2c0.3-0.6,0.8-1.1,1.3-1.5c0.6-0.4,1.3-0.5,2-0.5
		s1.4,0.2,2,0.5c0.6,0.4,1,0.9,1.3,1.5c0.3,0.6,0.5,1.3,0.5,2s-0.2,1.4-0.5,2s-0.8,1.1-1.3,1.5s-1.3,0.5-2,0.5s-1.4-0.2-2-0.5
		S52.2,186.8,51.9,186.2z M52.7,184.1c0,0.8,0.2,1.5,0.7,2.1c0.5,0.6,1.1,0.9,1.9,0.9c0.5,0,1-0.1,1.4-0.4c0.4-0.3,0.7-0.6,0.9-1.1
		c0.2-0.4,0.3-0.9,0.3-1.5c0-0.5-0.1-1-0.3-1.5c-0.2-0.4-0.5-0.8-0.9-1.1c-0.4-0.3-0.9-0.4-1.4-0.4s-1,0.1-1.4,0.4
		c-0.4,0.3-0.7,0.6-0.9,1.1C52.8,183.1,52.7,183.6,52.7,184.1z"/>
	<path class="st9" d="M61.1,188v-7.7h1.2v1.1c0.3-0.4,0.7-0.7,1.2-0.9s1-0.4,1.6-0.4c1.6,0,2.5,0.8,2.5,2.5v5.4h-1.2v-5.1
		c0-0.7-0.2-1.1-0.5-1.4c-0.3-0.3-0.7-0.4-1.3-0.4c-0.4,0-0.9,0.1-1.3,0.4s-0.7,0.5-1,0.9v5.6H61.1z"/>
	<path class="st9" d="M69.6,181c0-0.2,0.1-0.4,0.2-0.6c0.2-0.2,0.4-0.2,0.6-0.2c0.2,0,0.4,0.1,0.6,0.2c0.2,0.2,0.2,0.3,0.2,0.6
		c0,0.2-0.1,0.4-0.2,0.6s-0.3,0.2-0.6,0.2c-0.2,0-0.4-0.1-0.6-0.2C69.7,181.4,69.6,181.2,69.6,181z M69.9,187.9
		c-0.2-0.2-0.2-0.3-0.2-0.6s0.1-0.4,0.2-0.6c0.2-0.2,0.4-0.2,0.6-0.2c0.2,0,0.4,0.1,0.6,0.2c0.2,0.2,0.2,0.4,0.2,0.6
		s-0.1,0.4-0.2,0.6s-0.3,0.2-0.6,0.2C70.2,188.1,70,188.1,69.9,187.9z"/>
</g>
<g class="st10">
	<path class="st9" d="M96.6,188.1c0,0.7-0.1,1.3-0.4,1.8c-0.3,0.7-0.8,1-1.5,1c-0.7,0-1.1-0.3-1.4-1c-0.2-0.4-0.3-1-0.4-1.9
		c-0.5,0.2-1,0.2-1.5,0.2c-1.5,0-2.7-0.6-3.7-1.7c-1-1.1-1.4-2.4-1.4-3.9c0-1.5,0.5-2.8,1.4-3.9c1-1.2,2.2-1.7,3.7-1.7
		c1.5,0,2.7,0.6,3.7,1.7c0.9,1.1,1.4,2.4,1.4,3.9c0,1.1-0.3,2.1-0.8,3c-0.6,1-1.3,1.7-2.3,2.1c0.3,1,0.8,1.5,1.5,1.5
		c0.7,0,1.2-0.4,1.4-1.3c0-0.2,0.1-0.3,0.2-0.3C96.6,187.8,96.6,187.9,96.6,188.1z M95,182.8c0-2.4-0.7-4-2-4.8
		c-0.5-0.3-1-0.5-1.5-0.5c-0.5,0-1,0.1-1.5,0.4c-1.4,0.8-2.1,2.4-2.1,4.8c0,1.1,0.2,2.1,0.5,2.9c0.4,1,1.1,1.7,2,2.1
		c-0.1-0.2-0.2-0.5-0.2-0.7c0-0.4,0.1-0.7,0.4-0.9c0.2-0.3,0.5-0.4,0.9-0.4c0.8,0,1.3,0.5,1.7,1.6C94.4,186.4,95,184.9,95,182.8z
		 M92.8,187.6c-0.2-1-0.6-1.5-1.3-1.5c-0.3,0-0.5,0.1-0.7,0.3s-0.3,0.4-0.3,0.7c0,0.3,0.1,0.5,0.3,0.7s0.4,0.3,0.7,0.3
		C91.9,187.9,92.4,187.8,92.8,187.6z"/>
</g>
<g class="st10">
	<path class="st9" d="M105.4,191.6c-0.4,0-0.7,0-1.1,0h-3.2c-0.3,0-0.7,0-1.1,0v-0.5c0.1,0,0.2,0,0.3,0s0.2,0,0.3,0
		c0.8,0,1.3-0.1,1.4-0.3c0-0.1,0.1-0.2,0.1-0.4v-8.5c-0.6,0.3-1.3,0.4-2.1,0.4v-0.5c1.3,0,2.3-0.3,3-1h0.1c0.2,0,0.2,0,0.3,0.1
		c0,0,0,0.1,0,0.3v9.2c0,0.2,0,0.3,0.1,0.4c0.1,0.2,0.4,0.3,0.9,0.3c0.1,0,0.4,0,1.1,0V191.6z"/>
</g>
<g>
	<path class="st9" d="M117,183.4c0,0.2-0.1,0.3-0.3,0.3h-3.9c-0.2,0-0.3-0.1-0.3-0.3s0.1-0.3,0.3-0.3h3.9
		C116.9,183.1,117,183.2,117,183.4z"/>
	<path class="st9" d="M128.5,188c-0.4,0-0.7,0-1.1,0h-3.2c-0.3,0-0.7,0-1.1,0v-0.5c0.1,0,0.2,0,0.3,0s0.2,0,0.3,0
		c0.8,0,1.3-0.1,1.4-0.3c0-0.1,0.1-0.2,0.1-0.4v-8.5c-0.6,0.3-1.3,0.4-2.1,0.4v-0.5c1.3,0,2.3-0.3,3-1h0.1c0.2,0,0.2,0,0.3,0.1
		c0,0,0,0.1,0,0.3v9.2c0,0.2,0,0.3,0.1,0.4c0.1,0.2,0.4,0.3,0.9,0.3c0.1,0,0.4,0,1.1,0V188z"/>
	<path class="st9" d="M132.6,187.1c0,0.2-0.1,0.4-0.2,0.6c-0.2,0.2-0.4,0.2-0.6,0.2s-0.4-0.1-0.6-0.2c-0.2-0.2-0.2-0.4-0.2-0.6
		c0-0.2,0.1-0.4,0.2-0.6c0.2-0.2,0.4-0.2,0.6-0.2s0.4,0.1,0.6,0.2C132.6,186.7,132.6,186.9,132.6,187.1z"/>
	<path class="st9" d="M141,184.7c0,1-0.3,1.8-1,2.6c-0.7,0.7-1.5,1.1-2.5,1.1c-0.8,0-1.5-0.3-2.1-0.9s-0.9-1.3-0.9-2.1
		c0-0.6,0.3-0.9,0.8-0.9c0.2,0,0.4,0.1,0.6,0.2c0.2,0.2,0.2,0.3,0.2,0.6s-0.1,0.4-0.2,0.6c-0.2,0.2-0.4,0.2-0.6,0.2
		c-0.1,0-0.2,0-0.3,0c0.2,0.5,0.5,1,0.9,1.3c0.5,0.3,0.9,0.5,1.5,0.5c0.8,0,1.3-0.4,1.8-1.1c0.3-0.4,0.4-1.2,0.4-2.2
		c0-0.9-0.1-1.6-0.3-2c-0.3-0.7-0.8-1-1.4-1c-0.5,0-0.9,0.1-1.2,0.3c-0.2,0.1-0.5,0.3-0.7,0.6c-0.2,0.2-0.3,0.3-0.4,0.3
		c-0.2,0-0.2-0.1-0.2-0.3v-5.1c0-0.2,0.1-0.3,0.2-0.3c0,0,0.1,0,0.2,0c0.9,0.3,1.6,0.5,2.2,0.5c0.7,0,1.4-0.2,2.2-0.5
		c0.1,0,0.1,0,0.1,0c0.1,0,0.2,0.1,0.2,0.2c0,0.1-0.1,0.2-0.3,0.4c-0.8,0.8-1.7,1.3-2.9,1.3c-0.4,0-0.9-0.1-1.4-0.2v3.2
		c0.6-0.6,1.3-0.8,2.1-0.8c0.9,0,1.7,0.4,2.3,1.1C140.8,183,141,183.8,141,184.7z"/>
	<path class="st9" d="M146.3,190.6c0,0.1,0,0.1-0.1,0.1c-0.1,0-0.2-0.1-0.4-0.2c-1.2-1-2-2-2.5-3.1c-0.5-1.1-0.7-2.4-0.7-3.9
		s0.2-2.9,0.7-3.9c0.5-1.1,1.3-2.1,2.5-3.1c0.2-0.2,0.3-0.2,0.4-0.2c0.1,0,0.1,0,0.1,0.1c0,0-0.1,0.1-0.2,0.2
		c-1.6,1.5-2.3,3.8-2.3,6.9s0.8,5.4,2.3,6.9C146.2,190.5,146.3,190.5,146.3,190.6z"/>
	<path class="st9" d="M152.4,188c-0.4,0-0.7,0-0.9,0h-2.9c-0.2,0-0.5,0-0.9,0v-0.5c0,0,0.1,0,0.2,0c0.1,0,0.2,0,0.2,0
		c0.7,0,1-0.1,1.1-0.3c0-0.1,0.1-0.2,0.1-0.4v-8.3c0-0.2,0-0.3-0.1-0.4c-0.1-0.2-0.5-0.3-1.2-0.3h-0.4v-0.5c0.4,0,0.7,0,0.9,0h2.9
		c0.2,0,0.5,0,0.9,0v0.5c-0.1,0-0.1,0-0.2,0s-0.2,0-0.2,0c-0.4,0-0.7,0-0.8,0.1c-0.3,0.1-0.4,0.3-0.4,0.6v8.3c0,0.1,0,0.3,0.1,0.4
		c0.1,0.2,0.3,0.2,0.7,0.3c0,0,0.3,0,0.9,0V188z"/>
	<path class="st9" d="M163.7,188.1c0,0.7-0.1,1.3-0.4,1.8c-0.3,0.7-0.8,1-1.5,1c-0.7,0-1.1-0.3-1.4-1c-0.2-0.4-0.3-1-0.4-1.9
		c-0.5,0.2-1,0.2-1.5,0.2c-1.5,0-2.7-0.6-3.7-1.7c-1-1.1-1.4-2.4-1.4-3.9c0-1.5,0.5-2.8,1.4-3.9c1-1.2,2.2-1.7,3.7-1.7
		c1.5,0,2.7,0.6,3.7,1.7c0.9,1.1,1.4,2.4,1.4,3.9c0,1.1-0.3,2.1-0.8,3c-0.6,1-1.3,1.7-2.3,2.1c0.3,1,0.8,1.5,1.5,1.5
		c0.7,0,1.2-0.4,1.4-1.3c0-0.2,0.1-0.3,0.2-0.3C163.7,187.8,163.7,187.9,163.7,188.1z M162.1,182.8c0-2.4-0.7-4-2-4.8
		c-0.5-0.3-1-0.5-1.5-0.5c-0.5,0-1,0.1-1.5,0.4c-1.4,0.8-2.1,2.4-2.1,4.8c0,1.1,0.2,2.1,0.5,2.9c0.4,1,1.1,1.7,2,2.1
		c-0.1-0.2-0.2-0.5-0.2-0.7c0-0.4,0.1-0.7,0.4-0.9c0.2-0.3,0.5-0.4,0.9-0.4c0.8,0,1.3,0.5,1.7,1.6
		C161.5,186.4,162.1,184.9,162.1,182.8z M159.9,187.6c-0.2-1-0.6-1.5-1.3-1.5c-0.3,0-0.5,0.1-0.7,0.3s-0.3,0.4-0.3,0.7
		c0,0.3,0.1,0.5,0.3,0.7s0.4,0.3,0.7,0.3C159,187.9,159.5,187.8,159.9,187.6z"/>
	<path class="st9" d="M175.5,186.6c0,0.4-0.1,0.8-0.4,1.2c-0.3,0.4-0.6,0.5-1.1,0.5c-0.8,0-1.5-0.2-1.9-0.6c-0.4-0.4-0.6-1-0.6-1.9
		c0-0.1,0-0.2,0-0.3c0-0.1,0-0.2,0-0.3c0-0.8-0.2-1.4-0.6-1.8c-0.4-0.3-0.8-0.5-1.4-0.5h-1.8v4c0,0.2,0,0.3,0.1,0.4
		c0.1,0.2,0.6,0.3,1.5,0.3v0.5c-0.4,0-0.8,0-1.1,0h-2.3c-0.4,0-0.7,0-1.1,0v-0.5c0,0,0.1,0,0.2,0c0.1,0,0.2,0,0.2,0
		c0.7,0,1-0.1,1.1-0.3c0-0.1,0.1-0.2,0.1-0.4v-8.2c0-0.1,0-0.3,0-0.4c-0.1-0.2-0.6-0.3-1.5-0.3v-0.5h4.8c1,0,1.8,0.2,2.6,0.7
		c0.9,0.5,1.4,1.2,1.4,2.1c0,0.6-0.3,1.2-0.9,1.7c-0.5,0.4-1.1,0.7-1.8,0.8c0.9,0.3,1.4,0.8,1.8,1.4c0.1,0.3,0.2,0.7,0.3,1.3
		c0.1,0.4,0.1,0.9,0.2,1.3c0.2,0.8,0.5,1.2,0.9,1.2c0.5,0,0.9-0.5,1-1.4c0-0.2,0.1-0.2,0.2-0.2C175.4,186.4,175.5,186.5,175.5,186.6
		z M172,180.2c0-1-0.4-1.7-1.1-2c-0.4-0.2-1.3-0.3-2.5-0.3c-0.3,0-0.4,0-0.5,0.1c-0.2,0.1-0.2,0.2-0.2,0.4v4.1h1.7
		C171.2,182.6,172,181.8,172,180.2z"/>
	<path class="st9" d="M180.6,183.4c0,1.5-0.2,2.9-0.7,3.9c-0.5,1.1-1.3,2.1-2.5,3.1c-0.2,0.2-0.3,0.2-0.4,0.2c-0.1,0-0.1,0-0.1-0.1
		c0,0,0.1-0.1,0.2-0.2c1.6-1.5,2.3-3.8,2.3-6.9s-0.8-5.4-2.3-6.9c-0.1-0.1-0.2-0.2-0.2-0.2c0-0.1,0-0.1,0.1-0.1
		c0.1,0,0.2,0.1,0.4,0.2c1.2,1,2,2,2.5,3.1C180.4,180.6,180.6,181.9,180.6,183.4z"/>
</g>
<g class="st10">
	<path class="st9" d="M130,36.1l0.6-0.9c0.3,0.3,0.6,0.6,1.1,0.8c0.5,0.2,0.9,0.3,1.4,0.3c0.6,0,1-0.1,1.4-0.4
		c0.3-0.2,0.5-0.6,0.5-1c0-0.2-0.1-0.5-0.3-0.6c-0.2-0.2-0.4-0.3-0.7-0.4c-0.3-0.1-0.6-0.2-0.9-0.3c-0.3-0.1-0.7-0.2-1-0.3
		c-0.3-0.1-0.7-0.2-0.9-0.4s-0.5-0.4-0.7-0.6c-0.2-0.3-0.3-0.6-0.3-1c0-0.6,0.3-1.2,0.8-1.6c0.5-0.4,1.2-0.6,2.1-0.6
		c1.2,0,2.1,0.4,2.9,1.1l-0.6,0.8c-0.2-0.3-0.6-0.5-1-0.7s-0.9-0.3-1.3-0.3c-0.5,0-0.9,0.1-1.2,0.4c-0.3,0.2-0.5,0.5-0.5,0.9
		c0,0.2,0.1,0.4,0.3,0.6c0.2,0.2,0.4,0.3,0.7,0.4c0.3,0.1,0.6,0.2,0.9,0.3c0.3,0.1,0.7,0.2,1,0.3c0.3,0.1,0.7,0.2,0.9,0.4
		c0.3,0.2,0.5,0.4,0.7,0.7s0.3,0.6,0.3,1c0,0.7-0.3,1.2-0.8,1.7c-0.5,0.4-1.3,0.7-2.2,0.7C131.8,37.4,130.8,37,130,36.1z"/>
	<path class="st9" d="M138.1,37.2v-7.7h1.2v1.1c0.2-0.3,0.5-0.6,1-0.9c0.5-0.3,1-0.4,1.5-0.4c0.6,0,1,0.1,1.4,0.4
		c0.3,0.3,0.6,0.6,0.7,1c0.2-0.4,0.6-0.7,1.1-1s1-0.4,1.5-0.4c0.7,0,1.2,0.2,1.6,0.6c0.4,0.4,0.5,1,0.5,1.8v5.6h-1.2v-5.2
		c0-1.1-0.5-1.6-1.4-1.6c-0.4,0-0.8,0.1-1.2,0.3c-0.4,0.2-0.7,0.5-0.9,0.8v5.7h-1.2v-5.2c0-1.1-0.5-1.6-1.4-1.6
		c-0.4,0-0.8,0.1-1.1,0.4c-0.4,0.2-0.7,0.5-0.9,0.8v5.6H138.1z"/>
	<path class="st9" d="M150.6,34.8c0-0.4,0.1-0.8,0.2-1.1c0.2-0.3,0.4-0.6,0.6-0.8s0.5-0.4,0.8-0.5s0.6-0.2,1-0.2c1.1,0,2,0.3,2.6,1
		v-1.4c0-0.5-0.2-0.9-0.5-1.2s-0.8-0.4-1.4-0.4c-0.9,0-1.7,0.4-2.4,1.1l-0.6-0.8c0.8-0.9,1.8-1.3,3.1-1.3c0.4,0,0.8,0,1.2,0.1
		c0.4,0.1,0.7,0.2,0.9,0.4c0.3,0.2,0.5,0.5,0.6,0.8c0.2,0.3,0.2,0.7,0.2,1.2v5.3h-1.2v-0.9c-0.6,0.7-1.5,1.1-2.6,1.1
		c-0.3,0-0.6-0.1-1-0.2c-0.3-0.1-0.6-0.3-0.9-0.5c-0.3-0.2-0.5-0.5-0.6-0.8C150.7,35.6,150.6,35.2,150.6,34.8z M151.8,34.8
		c0,0.5,0.2,0.9,0.5,1.2s0.8,0.5,1.4,0.5c0.4,0,0.8-0.1,1.2-0.2c0.4-0.2,0.7-0.4,0.9-0.7v-1.5c-0.2-0.3-0.5-0.5-0.9-0.7
		c-0.4-0.2-0.8-0.2-1.2-0.2c-0.6,0-1,0.2-1.4,0.5S151.8,34.3,151.8,34.8z"/>
	<path class="st9" d="M159.4,37.2V26.5h1.2v10.7H159.4z"/>
	<path class="st9" d="M163,37.2V26.5h1.2v10.7H163z"/>
	<path class="st9" d="M166.2,33.3c0-0.7,0.2-1.4,0.5-2c0.3-0.6,0.8-1.1,1.4-1.5s1.2-0.5,2-0.5c0.8,0,1.4,0.2,2,0.6
		c0.6,0.4,1,0.9,1.3,1.5s0.4,1.3,0.4,2.1v0.3h-6.3c0,0.8,0.3,1.4,0.8,1.9c0.5,0.5,1.1,0.8,2,0.8c0.5,0,0.9-0.1,1.3-0.3
		c0.4-0.2,0.8-0.4,1.1-0.7l0.6,0.8c-0.8,0.8-1.8,1.2-3.1,1.2c-1.2,0-2.1-0.4-2.8-1.1C166.5,35.5,166.2,34.5,166.2,33.3z M167.4,32.8
		h5.1c0-0.3-0.1-0.6-0.2-0.9c-0.1-0.3-0.3-0.6-0.5-0.8s-0.5-0.5-0.8-0.6c-0.3-0.2-0.7-0.2-1.1-0.2c-0.4,0-0.8,0.1-1.1,0.2
		c-0.3,0.2-0.6,0.4-0.8,0.6s-0.4,0.5-0.5,0.8C167.5,32.2,167.4,32.5,167.4,32.8z"/>
	<path class="st9" d="M175,36.1l0.6-0.9c0.3,0.3,0.6,0.6,1.1,0.8c0.5,0.2,0.9,0.3,1.4,0.3c0.6,0,1-0.1,1.4-0.4
		c0.3-0.2,0.5-0.6,0.5-1c0-0.2-0.1-0.5-0.3-0.6c-0.2-0.2-0.4-0.3-0.7-0.4c-0.3-0.1-0.6-0.2-0.9-0.3c-0.3-0.1-0.7-0.2-1-0.3
		c-0.3-0.1-0.7-0.2-0.9-0.4s-0.5-0.4-0.7-0.6c-0.2-0.3-0.3-0.6-0.3-1c0-0.6,0.3-1.2,0.8-1.6c0.5-0.4,1.2-0.6,2.1-0.6
		c1.2,0,2.1,0.4,2.9,1.1l-0.6,0.8c-0.2-0.3-0.6-0.5-1-0.7s-0.9-0.3-1.3-0.3c-0.5,0-0.9,0.1-1.2,0.4c-0.3,0.2-0.5,0.5-0.5,0.9
		c0,0.2,0.1,0.4,0.3,0.6c0.2,0.2,0.4,0.3,0.7,0.4c0.3,0.1,0.6,0.2,0.9,0.3c0.3,0.1,0.7,0.2,1,0.3c0.3,0.1,0.7,0.2,0.9,0.4
		c0.3,0.2,0.5,0.4,0.7,0.7s0.3,0.6,0.3,1c0,0.7-0.3,1.2-0.8,1.7c-0.5,0.4-1.3,0.7-2.2,0.7C176.8,37.4,175.8,37,175,36.1z"/>
	<path class="st9" d="M182,30.5v-1h1.3v-2.1h1.2v2.1h1.6v1h-1.6v4.8c0,0.3,0.1,0.5,0.2,0.7c0.1,0.2,0.3,0.3,0.6,0.3
		c0.4,0,0.6-0.1,0.8-0.3l0.4,0.9c-0.3,0.3-0.8,0.5-1.4,0.5c-0.6,0-1-0.2-1.3-0.5c-0.3-0.3-0.4-0.8-0.4-1.3v-5.1H182z"/>
	<path class="st9" d="M190.8,29.5h1.3l2.6,6.3l2.6-6.3h1.3l-3.2,7.7H194L190.8,29.5z"/>
	<path class="st9" d="M199.3,34.8c0-0.4,0.1-0.8,0.2-1.1c0.2-0.3,0.4-0.6,0.6-0.8s0.5-0.4,0.8-0.5s0.6-0.2,1-0.2c1.1,0,2,0.3,2.6,1
		v-1.4c0-0.5-0.2-0.9-0.5-1.2s-0.8-0.4-1.4-0.4c-0.9,0-1.7,0.4-2.4,1.1l-0.6-0.8c0.8-0.9,1.8-1.3,3.1-1.3c0.4,0,0.8,0,1.2,0.1
		c0.4,0.1,0.7,0.2,0.9,0.4c0.3,0.2,0.5,0.5,0.6,0.8c0.2,0.3,0.2,0.7,0.2,1.2v5.3h-1.2v-0.9c-0.6,0.7-1.5,1.1-2.6,1.1
		c-0.3,0-0.6-0.1-1-0.2c-0.3-0.1-0.6-0.3-0.9-0.5c-0.3-0.2-0.5-0.5-0.6-0.8C199.4,35.6,199.3,35.2,199.3,34.8z M200.5,34.8
		c0,0.5,0.2,0.9,0.5,1.2s0.8,0.5,1.4,0.5c0.4,0,0.8-0.1,1.2-0.2c0.4-0.2,0.7-0.4,0.9-0.7v-1.5c-0.2-0.3-0.5-0.5-0.9-0.7
		c-0.4-0.2-0.8-0.2-1.2-0.2c-0.6,0-1,0.2-1.4,0.5S200.5,34.3,200.5,34.8z"/>
	<path class="st9" d="M208.2,37.2V26.5h1.2v10.7H208.2z"/>
	<path class="st9" d="M211.8,34.9v-5.5h1.2v5.1c0,0.6,0.1,1.1,0.4,1.4c0.3,0.3,0.7,0.4,1.3,0.4c0.4,0,0.9-0.1,1.3-0.3
		c0.4-0.2,0.7-0.5,1-0.8v-5.7h1.2v7.7H217v-1.1c-0.3,0.4-0.7,0.7-1.2,0.9s-1,0.4-1.5,0.4C212.6,37.4,211.8,36.5,211.8,34.9z"/>
	<path class="st9" d="M220.2,33.3c0-0.7,0.2-1.4,0.5-2c0.3-0.6,0.8-1.1,1.4-1.5s1.2-0.5,2-0.5c0.8,0,1.4,0.2,2,0.6
		c0.6,0.4,1,0.9,1.3,1.5s0.4,1.3,0.4,2.1v0.3h-6.3c0,0.8,0.3,1.4,0.8,1.9c0.5,0.5,1.1,0.8,2,0.8c0.5,0,0.9-0.1,1.3-0.3
		c0.4-0.2,0.8-0.4,1.1-0.7l0.6,0.8c-0.8,0.8-1.8,1.2-3.1,1.2c-1.2,0-2.1-0.4-2.8-1.1C220.5,35.5,220.2,34.5,220.2,33.3z M221.4,32.8
		h5.1c0-0.3-0.1-0.6-0.2-0.9c-0.1-0.3-0.3-0.6-0.5-0.8s-0.5-0.5-0.8-0.6c-0.3-0.2-0.7-0.2-1.1-0.2c-0.4,0-0.8,0.1-1.1,0.2
		c-0.3,0.2-0.6,0.4-0.8,0.6s-0.4,0.5-0.5,0.8C221.5,32.2,221.4,32.5,221.4,32.8z"/>
	<path class="st9" d="M111.9,49.7v-1h1.3v-2.1h1.2v2.1h1.6v1h-1.6v4.8c0,0.3,0.1,0.5,0.2,0.7c0.1,0.2,0.3,0.3,0.6,0.3
		c0.4,0,0.6-0.1,0.8-0.3l0.4,0.9c-0.3,0.3-0.8,0.5-1.4,0.5c-0.6,0-1-0.2-1.3-0.5c-0.3-0.3-0.4-0.8-0.4-1.3v-5.1H111.9z"/>
	<path class="st9" d="M117.7,56.4V45.7h1.2v4.1c0.3-0.4,0.7-0.7,1.2-0.9c0.5-0.3,1-0.4,1.6-0.4c1.6,0,2.5,0.8,2.5,2.5v5.5h-1.2v-5.1
		c0-0.7-0.1-1.1-0.4-1.4s-0.7-0.4-1.3-0.4c-0.4,0-0.9,0.1-1.3,0.4c-0.4,0.2-0.7,0.5-1,0.9v5.6H117.7z"/>
	<path class="st9" d="M126.1,54c0-0.4,0.1-0.8,0.2-1.1c0.2-0.3,0.4-0.6,0.6-0.8s0.5-0.4,0.8-0.5s0.6-0.2,1-0.2c1.1,0,2,0.3,2.6,1
		v-1.4c0-0.5-0.2-0.9-0.5-1.2s-0.8-0.4-1.4-0.4c-0.9,0-1.7,0.4-2.4,1.1l-0.6-0.8c0.8-0.9,1.8-1.3,3.1-1.3c0.4,0,0.8,0,1.2,0.1
		c0.4,0.1,0.7,0.2,0.9,0.4c0.3,0.2,0.5,0.5,0.6,0.8c0.2,0.3,0.2,0.7,0.2,1.2v5.3h-1.2v-0.9c-0.6,0.7-1.5,1.1-2.6,1.1
		c-0.3,0-0.6-0.1-1-0.2c-0.3-0.1-0.6-0.3-0.9-0.5c-0.3-0.2-0.5-0.5-0.6-0.8C126.2,54.8,126.1,54.4,126.1,54z M127.3,54
		c0,0.5,0.2,0.9,0.5,1.2s0.8,0.5,1.4,0.5c0.4,0,0.8-0.1,1.2-0.2c0.4-0.2,0.7-0.4,0.9-0.7v-1.5c-0.2-0.3-0.5-0.5-0.9-0.7
		c-0.4-0.2-0.8-0.2-1.2-0.2c-0.6,0-1,0.2-1.4,0.5S127.3,53.5,127.3,54z"/>
	<path class="st9" d="M133.9,49.7v-1h1.3v-2.1h1.2v2.1h1.6v1h-1.6v4.8c0,0.3,0.1,0.5,0.2,0.7c0.1,0.2,0.3,0.3,0.6,0.3
		c0.4,0,0.6-0.1,0.8-0.3l0.4,0.9c-0.3,0.3-0.8,0.5-1.4,0.5c-0.6,0-1-0.2-1.3-0.5c-0.3-0.3-0.4-0.8-0.4-1.3v-5.1H133.9z"/>
	<path class="st9" d="M139.4,48.6c0.3-0.2,0.5-0.4,0.7-0.7c0.2-0.3,0.3-0.6,0.3-0.8c-0.1,0-0.1,0-0.2,0c-0.2,0-0.4-0.1-0.5-0.2
		s-0.2-0.3-0.2-0.6c0-0.2,0.1-0.4,0.2-0.6c0.2-0.2,0.4-0.2,0.6-0.2c0.3,0,0.5,0.1,0.7,0.3c0.2,0.2,0.3,0.5,0.3,0.9
		c0,0.5-0.1,0.9-0.4,1.3c-0.2,0.4-0.5,0.8-0.9,1.1L139.4,48.6z"/>
	<path class="st9" d="M142.7,55.3l0.6-0.9c0.3,0.3,0.6,0.6,1.1,0.8c0.5,0.2,0.9,0.3,1.4,0.3c0.6,0,1-0.1,1.4-0.4
		c0.3-0.2,0.5-0.6,0.5-1c0-0.2-0.1-0.5-0.3-0.6c-0.2-0.2-0.4-0.3-0.7-0.4c-0.3-0.1-0.6-0.2-0.9-0.3c-0.3-0.1-0.7-0.2-1-0.3
		c-0.3-0.1-0.7-0.2-0.9-0.4s-0.5-0.4-0.7-0.6c-0.2-0.3-0.3-0.6-0.3-1c0-0.6,0.3-1.2,0.8-1.6c0.5-0.4,1.2-0.6,2.1-0.6
		c1.2,0,2.1,0.4,2.9,1.1l-0.6,0.8c-0.2-0.3-0.6-0.5-1-0.7s-0.9-0.3-1.3-0.3c-0.5,0-0.9,0.1-1.2,0.4c-0.3,0.2-0.5,0.5-0.5,0.9
		c0,0.2,0.1,0.4,0.3,0.6c0.2,0.2,0.4,0.3,0.7,0.4c0.3,0.1,0.6,0.2,0.9,0.3c0.3,0.1,0.7,0.2,1,0.3c0.3,0.1,0.7,0.2,0.9,0.4
		c0.3,0.2,0.5,0.4,0.7,0.7s0.3,0.6,0.3,1c0,0.7-0.3,1.2-0.8,1.7c-0.5,0.4-1.3,0.7-2.2,0.7C144.5,56.6,143.5,56.2,142.7,55.3z"/>
	<path class="st9" d="M154.9,56.4v-7.7h1.2v1.1c0.3-0.4,0.7-0.7,1.2-0.9s1-0.4,1.6-0.4c1.6,0,2.5,0.8,2.5,2.5v5.4h-1.2v-5.1
		c0-0.7-0.2-1.1-0.5-1.4c-0.3-0.3-0.7-0.4-1.3-0.4c-0.4,0-0.9,0.1-1.3,0.4s-0.7,0.5-1,0.9v5.6H154.9z"/>
	<path class="st9" d="M163.8,54.6c-0.3-0.6-0.5-1.3-0.5-2s0.2-1.4,0.5-2c0.3-0.6,0.8-1.1,1.3-1.5c0.6-0.4,1.3-0.5,2-0.5
		s1.4,0.2,2,0.5c0.6,0.4,1,0.9,1.3,1.5c0.3,0.6,0.5,1.3,0.5,2s-0.2,1.4-0.5,2s-0.8,1.1-1.3,1.5s-1.3,0.5-2,0.5s-1.4-0.2-2-0.5
		S164.1,55.2,163.8,54.6z M164.6,52.5c0,0.8,0.2,1.5,0.7,2.1c0.5,0.6,1.1,0.9,1.9,0.9c0.5,0,1-0.1,1.4-0.4c0.4-0.3,0.7-0.6,0.9-1.1
		c0.2-0.4,0.3-0.9,0.3-1.5c0-0.5-0.1-1-0.3-1.5c-0.2-0.4-0.5-0.8-0.9-1.1c-0.4-0.3-0.9-0.4-1.4-0.4s-1,0.1-1.4,0.4
		c-0.4,0.3-0.7,0.6-0.9,1.1C164.7,51.5,164.6,52,164.6,52.5z"/>
	<path class="st9" d="M171.8,49.7v-1h1.3v-2.1h1.2v2.1h1.6v1h-1.6v4.8c0,0.3,0.1,0.5,0.2,0.7c0.1,0.2,0.3,0.3,0.6,0.3
		c0.4,0,0.6-0.1,0.8-0.3l0.4,0.9c-0.3,0.3-0.8,0.5-1.4,0.5c-0.6,0-1-0.2-1.3-0.5c-0.3-0.3-0.4-0.8-0.4-1.3v-5.1H171.8z"/>
	<path class="st9" d="M181.3,54c0-0.4,0.1-0.8,0.2-1.1c0.2-0.3,0.4-0.6,0.6-0.8s0.5-0.4,0.8-0.5s0.6-0.2,1-0.2c1.1,0,2,0.3,2.6,1
		v-1.4c0-0.5-0.2-0.9-0.5-1.2s-0.8-0.4-1.4-0.4c-0.9,0-1.7,0.4-2.4,1.1l-0.6-0.8c0.8-0.9,1.8-1.3,3.1-1.3c0.4,0,0.8,0,1.2,0.1
		c0.4,0.1,0.7,0.2,0.9,0.4c0.3,0.2,0.5,0.5,0.6,0.8c0.2,0.3,0.2,0.7,0.2,1.2v5.3h-1.2v-0.9c-0.6,0.7-1.5,1.1-2.6,1.1
		c-0.3,0-0.6-0.1-1-0.2c-0.3-0.1-0.6-0.3-0.9-0.5c-0.3-0.2-0.5-0.5-0.6-0.8C181.4,54.8,181.3,54.4,181.3,54z M182.5,54
		c0,0.5,0.2,0.9,0.5,1.2s0.8,0.5,1.4,0.5c0.4,0,0.8-0.1,1.2-0.2c0.4-0.2,0.7-0.4,0.9-0.7v-1.5c-0.2-0.3-0.5-0.5-0.9-0.7
		c-0.4-0.2-0.8-0.2-1.2-0.2c-0.6,0-1,0.2-1.4,0.5S182.5,53.5,182.5,54z"/>
	<path class="st9" d="M190.2,56.4v-7.7h1.2v1.1c0.3-0.4,0.7-0.7,1.2-0.9s1-0.4,1.6-0.4c1.6,0,2.5,0.8,2.5,2.5v5.4h-1.2v-5.1
		c0-0.7-0.2-1.1-0.5-1.4c-0.3-0.3-0.7-0.4-1.3-0.4c-0.4,0-0.9,0.1-1.3,0.4s-0.7,0.5-1,0.9v5.6H190.2z"/>
	<path class="st9" d="M203.2,54.6c-0.3-0.6-0.5-1.3-0.5-2s0.2-1.4,0.5-2c0.3-0.6,0.8-1.1,1.3-1.5c0.6-0.4,1.3-0.5,2-0.5
		s1.4,0.2,2,0.5c0.6,0.4,1,0.9,1.3,1.5c0.3,0.6,0.5,1.3,0.5,2s-0.2,1.4-0.5,2s-0.8,1.1-1.3,1.5s-1.3,0.5-2,0.5s-1.4-0.2-2-0.5
		S203.5,55.2,203.2,54.6z M204,52.5c0,0.8,0.2,1.5,0.7,2.1c0.5,0.6,1.1,0.9,1.9,0.9c0.5,0,1-0.1,1.4-0.4c0.4-0.3,0.7-0.6,0.9-1.1
		c0.2-0.4,0.3-0.9,0.3-1.5c0-0.5-0.1-1-0.3-1.5c-0.2-0.4-0.5-0.8-0.9-1.1c-0.4-0.3-0.9-0.4-1.4-0.4s-1,0.1-1.4,0.4
		c-0.4,0.3-0.7,0.6-0.9,1.1C204.1,51.5,204,52,204,52.5z"/>
	<path class="st9" d="M212.3,54.1v-5.5h1.2v5.1c0,0.6,0.1,1.1,0.4,1.4c0.3,0.3,0.7,0.4,1.3,0.4c0.4,0,0.9-0.1,1.3-0.3
		c0.4-0.2,0.7-0.5,1-0.8v-5.7h1.2v7.7h-1.2v-1.1c-0.3,0.4-0.7,0.7-1.2,0.9s-1,0.4-1.5,0.4C213.1,56.6,212.3,55.7,212.3,54.1z"/>
	<path class="st9" d="M220,49.7v-1h1.3v-2.1h1.2v2.1h1.6v1h-1.6v4.8c0,0.3,0.1,0.5,0.2,0.7c0.1,0.2,0.3,0.3,0.6,0.3
		c0.4,0,0.6-0.1,0.8-0.3l0.4,0.9c-0.3,0.3-0.8,0.5-1.4,0.5c-0.6,0-1-0.2-1.3-0.5c-0.3-0.3-0.4-0.8-0.4-1.3v-5.1H220z"/>
	<path class="st9" d="M225.8,56.4V45.7h1.2v10.7H225.8z"/>
	<path class="st9" d="M229.4,47.3c-0.2-0.2-0.2-0.3-0.2-0.6s0.1-0.4,0.2-0.6c0.2-0.2,0.4-0.2,0.6-0.2c0.2,0,0.4,0.1,0.6,0.2
		s0.2,0.4,0.2,0.6s-0.1,0.4-0.2,0.6s-0.3,0.2-0.6,0.2C229.8,47.5,229.6,47.5,229.4,47.3z M229.4,56.4v-7.7h1.2v7.7H229.4z"/>
	<path class="st9" d="M232.5,52.5c0-0.7,0.2-1.4,0.5-2c0.3-0.6,0.8-1.1,1.4-1.5s1.2-0.5,2-0.5c0.8,0,1.4,0.2,2,0.6
		c0.6,0.4,1,0.9,1.3,1.5s0.4,1.3,0.4,2.1v0.3h-6.3c0,0.8,0.3,1.4,0.8,1.9c0.5,0.5,1.1,0.8,2,0.8c0.5,0,0.9-0.1,1.3-0.3
		c0.4-0.2,0.8-0.4,1.1-0.7l0.6,0.8c-0.8,0.8-1.8,1.2-3.1,1.2c-1.2,0-2.1-0.4-2.8-1.1C232.9,54.7,232.5,53.7,232.5,52.5z M233.8,52
		h5.1c0-0.3-0.1-0.6-0.2-0.9c-0.1-0.3-0.3-0.6-0.5-0.8s-0.5-0.5-0.8-0.6c-0.3-0.2-0.7-0.2-1.1-0.2c-0.4,0-0.8,0.1-1.1,0.2
		c-0.3,0.2-0.6,0.4-0.8,0.6s-0.4,0.5-0.5,0.8C233.9,51.4,233.8,51.7,233.8,52z"/>
	<path class="st9" d="M242,56.4v-7.7h1.2v1.2c0.3-0.4,0.7-0.8,1.2-1c0.4-0.3,0.9-0.4,1.4-0.4v1.2c-0.2,0-0.3,0-0.5,0
		c-0.4,0-0.8,0.1-1.2,0.4c-0.4,0.3-0.7,0.5-0.9,0.9v5.5H242z"/>
</g>
<g class="st10">
	<path class="st9" d="M384.5,37.2V26.5h1.2v10.7H384.5z"/>
	<path class="st9" d="M387.7,34.8c0-0.4,0.1-0.8,0.2-1.1c0.2-0.3,0.4-0.6,0.6-0.8s0.5-0.4,0.8-0.5c0.3-0.1,0.6-0.2,1-0.2
		c1.1,0,2,0.3,2.6,1v-1.4c0-0.5-0.2-0.9-0.5-1.2s-0.8-0.4-1.4-0.4c-0.9,0-1.7,0.4-2.4,1.1l-0.6-0.8c0.8-0.9,1.8-1.3,3.1-1.3
		c0.4,0,0.8,0,1.2,0.1c0.4,0.1,0.7,0.2,0.9,0.4c0.3,0.2,0.5,0.5,0.6,0.8c0.2,0.3,0.2,0.7,0.2,1.2v5.3h-1.2v-0.9
		c-0.6,0.7-1.5,1.1-2.6,1.1c-0.3,0-0.6-0.1-1-0.2c-0.3-0.1-0.6-0.3-0.9-0.5c-0.3-0.2-0.5-0.5-0.6-0.8
		C387.8,35.6,387.7,35.2,387.7,34.8z M388.9,34.8c0,0.5,0.2,0.9,0.5,1.2s0.8,0.5,1.4,0.5c0.4,0,0.8-0.1,1.2-0.2
		c0.4-0.2,0.7-0.4,0.9-0.7v-1.5c-0.2-0.3-0.5-0.5-0.9-0.7c-0.4-0.2-0.8-0.2-1.2-0.2c-0.6,0-1,0.2-1.4,0.5S388.9,34.3,388.9,34.8z"/>
	<path class="st9" d="M396.6,37.2v-7.7h1.2v1.2c0.3-0.4,0.7-0.8,1.2-1s0.9-0.4,1.4-0.4v1.2c-0.2,0-0.3,0-0.5,0
		c-0.4,0-0.8,0.1-1.2,0.4s-0.7,0.5-0.9,0.9v5.5H396.6z"/>
	<path class="st9" d="M401.4,33.3c0-1.2,0.3-2.2,1-2.9s1.5-1.1,2.5-1.1c0.5,0,1,0.1,1.4,0.4c0.5,0.2,0.8,0.6,1.2,1v-1.2h1.2v7.6
		c0,0.6-0.1,1.1-0.3,1.5s-0.5,0.8-0.8,1s-0.7,0.4-1.2,0.5c-0.4,0.1-0.9,0.2-1.4,0.2c-0.7,0-1.3-0.1-1.7-0.2s-0.9-0.5-1.4-0.9
		l0.6-0.9c0.3,0.4,0.7,0.6,1.1,0.8s0.9,0.2,1.4,0.2c0.7,0,1.3-0.2,1.8-0.6c0.5-0.4,0.7-0.9,0.7-1.7v-1.2c-0.3,0.4-0.7,0.7-1.1,1
		s-0.9,0.4-1.5,0.4c-1,0-1.9-0.4-2.5-1.1S401.4,34.5,401.4,33.3z M402.6,33.3c0,0.9,0.2,1.6,0.7,2.1s1.1,0.8,1.8,0.8
		c0.5,0,0.9-0.1,1.3-0.4c0.4-0.2,0.8-0.5,1-0.9v-3.4c-0.2-0.3-0.5-0.6-1-0.9s-0.9-0.4-1.3-0.4c-0.8,0-1.4,0.3-1.8,0.8
		S402.6,32.4,402.6,33.3z"/>
	<path class="st9" d="M410.6,33.3c0-0.7,0.2-1.4,0.5-2c0.3-0.6,0.8-1.1,1.4-1.5c0.6-0.4,1.2-0.5,2-0.5c0.8,0,1.4,0.2,2,0.6
		c0.6,0.4,1,0.9,1.3,1.5s0.4,1.3,0.4,2.1v0.3h-6.3c0,0.8,0.3,1.4,0.8,1.9c0.5,0.5,1.1,0.8,2,0.8c0.5,0,0.9-0.1,1.3-0.3
		s0.8-0.4,1.1-0.7l0.6,0.8c-0.8,0.8-1.8,1.2-3.1,1.2c-1.2,0-2.1-0.4-2.8-1.1S410.6,34.5,410.6,33.3z M411.8,32.8h5.1
		c0-0.3-0.1-0.6-0.2-0.9s-0.3-0.6-0.5-0.8s-0.5-0.5-0.8-0.6s-0.7-0.2-1.1-0.2c-0.4,0-0.8,0.1-1.1,0.2c-0.3,0.2-0.6,0.4-0.8,0.6
		c-0.2,0.3-0.4,0.5-0.5,0.8C411.9,32.2,411.8,32.5,411.8,32.8z"/>
	<path class="st9" d="M419.4,36.1l0.6-0.9c0.3,0.3,0.6,0.6,1.1,0.8c0.5,0.2,0.9,0.3,1.4,0.3c0.6,0,1-0.1,1.4-0.4
		c0.3-0.2,0.5-0.6,0.5-1c0-0.2-0.1-0.5-0.3-0.6s-0.4-0.3-0.7-0.4c-0.3-0.1-0.6-0.2-0.9-0.3c-0.3-0.1-0.7-0.2-1-0.3s-0.7-0.2-0.9-0.4
		s-0.5-0.4-0.7-0.6s-0.3-0.6-0.3-1c0-0.6,0.3-1.2,0.8-1.6c0.5-0.4,1.2-0.6,2.1-0.6c1.2,0,2.1,0.4,2.9,1.1l-0.6,0.8
		c-0.2-0.3-0.6-0.5-1-0.7s-0.9-0.3-1.3-0.3c-0.5,0-0.9,0.1-1.2,0.4s-0.5,0.5-0.5,0.9c0,0.2,0.1,0.4,0.3,0.6c0.2,0.2,0.4,0.3,0.7,0.4
		c0.3,0.1,0.6,0.2,0.9,0.3c0.3,0.1,0.7,0.2,1,0.3c0.3,0.1,0.7,0.2,0.9,0.4c0.3,0.2,0.5,0.4,0.7,0.7s0.3,0.6,0.3,1
		c0,0.7-0.3,1.2-0.8,1.7c-0.5,0.4-1.3,0.7-2.2,0.7C421.2,37.4,420.2,37,419.4,36.1z"/>
	<path class="st9" d="M426.4,30.5v-1h1.3v-2.1h1.2v2.1h1.6v1h-1.6v4.8c0,0.3,0.1,0.5,0.2,0.7s0.3,0.3,0.6,0.3c0.4,0,0.6-0.1,0.8-0.3
		l0.4,0.9c-0.3,0.3-0.8,0.5-1.4,0.5c-0.6,0-1-0.2-1.3-0.5c-0.3-0.3-0.4-0.8-0.4-1.3v-5.1H426.4z"/>
	<path class="st9" d="M435.2,29.5h1.3l2.6,6.3l2.6-6.3h1.3l-3.2,7.7h-1.3L435.2,29.5z"/>
	<path class="st9" d="M443.7,34.8c0-0.4,0.1-0.8,0.2-1.1c0.2-0.3,0.4-0.6,0.6-0.8s0.5-0.4,0.8-0.5c0.3-0.1,0.6-0.2,1-0.2
		c1.1,0,2,0.3,2.6,1v-1.4c0-0.5-0.2-0.9-0.5-1.2s-0.8-0.4-1.4-0.4c-0.9,0-1.7,0.4-2.4,1.1l-0.6-0.8c0.8-0.9,1.8-1.3,3.1-1.3
		c0.4,0,0.8,0,1.2,0.1c0.4,0.1,0.7,0.2,0.9,0.4c0.3,0.2,0.5,0.5,0.6,0.8c0.2,0.3,0.2,0.7,0.2,1.2v5.3H449v-0.9
		c-0.6,0.7-1.5,1.1-2.6,1.1c-0.3,0-0.6-0.1-1-0.2c-0.3-0.1-0.6-0.3-0.9-0.5c-0.3-0.2-0.5-0.5-0.6-0.8
		C443.8,35.6,443.7,35.2,443.7,34.8z M444.9,34.8c0,0.5,0.2,0.9,0.5,1.2s0.8,0.5,1.4,0.5c0.4,0,0.8-0.1,1.2-0.2
		c0.4-0.2,0.7-0.4,0.9-0.7v-1.5c-0.2-0.3-0.5-0.5-0.9-0.7c-0.4-0.2-0.8-0.2-1.2-0.2c-0.6,0-1,0.2-1.4,0.5S444.9,34.3,444.9,34.8z"/>
	<path class="st9" d="M452.6,37.2V26.5h1.2v10.7H452.6z"/>
	<path class="st9" d="M456.2,34.9v-5.5h1.2v5.1c0,0.6,0.1,1.1,0.4,1.4c0.3,0.3,0.7,0.4,1.3,0.4c0.4,0,0.9-0.1,1.3-0.3
		c0.4-0.2,0.7-0.5,1-0.8v-5.7h1.2v7.7h-1.2v-1.1c-0.3,0.4-0.7,0.7-1.2,0.9s-1,0.4-1.5,0.4C457,37.4,456.2,36.5,456.2,34.9z"/>
	<path class="st9" d="M464.5,33.3c0-0.7,0.2-1.4,0.5-2c0.3-0.6,0.8-1.1,1.4-1.5c0.6-0.4,1.2-0.5,2-0.5c0.8,0,1.4,0.2,2,0.6
		c0.6,0.4,1,0.9,1.3,1.5s0.4,1.3,0.4,2.1v0.3h-6.3c0,0.8,0.3,1.4,0.8,1.9c0.5,0.5,1.1,0.8,2,0.8c0.5,0,0.9-0.1,1.3-0.3
		s0.8-0.4,1.1-0.7l0.6,0.8c-0.8,0.8-1.8,1.2-3.1,1.2c-1.2,0-2.1-0.4-2.8-1.1S464.5,34.5,464.5,33.3z M465.8,32.8h5.1
		c0-0.3-0.1-0.6-0.2-0.9s-0.3-0.6-0.5-0.8s-0.5-0.5-0.8-0.6s-0.7-0.2-1.1-0.2c-0.4,0-0.8,0.1-1.1,0.2c-0.3,0.2-0.6,0.4-0.8,0.6
		c-0.2,0.3-0.4,0.5-0.5,0.8C465.9,32.2,465.8,32.5,465.8,32.8z"/>
	<path class="st9" d="M361,49.7v-1h1.3v-2.1h1.2v2.1h1.6v1h-1.6v4.8c0,0.3,0.1,0.5,0.2,0.7s0.3,0.3,0.6,0.3c0.4,0,0.6-0.1,0.8-0.3
		l0.4,0.9c-0.3,0.3-0.8,0.5-1.4,0.5c-0.6,0-1-0.2-1.3-0.5c-0.3-0.3-0.4-0.8-0.4-1.3v-5.1H361z"/>
	<path class="st9" d="M366.8,56.4V45.7h1.2v4.1c0.3-0.4,0.7-0.7,1.2-0.9s1-0.4,1.6-0.4c1.6,0,2.5,0.8,2.5,2.5v5.5H372v-5.1
		c0-0.7-0.1-1.1-0.4-1.4s-0.7-0.4-1.3-0.4c-0.4,0-0.9,0.1-1.3,0.4s-0.7,0.5-1,0.9v5.6H366.8z"/>
	<path class="st9" d="M375.2,54c0-0.4,0.1-0.8,0.2-1.1c0.2-0.3,0.4-0.6,0.6-0.8s0.5-0.4,0.8-0.5c0.3-0.1,0.6-0.2,1-0.2
		c1.1,0,2,0.3,2.6,1v-1.4c0-0.5-0.2-0.9-0.5-1.2s-0.8-0.4-1.4-0.4c-0.9,0-1.7,0.4-2.4,1.1l-0.6-0.8c0.8-0.9,1.8-1.3,3.1-1.3
		c0.4,0,0.8,0,1.2,0.1c0.4,0.1,0.7,0.2,0.9,0.4c0.3,0.2,0.5,0.5,0.6,0.8c0.2,0.3,0.2,0.7,0.2,1.2v5.3h-1.2v-0.9
		c-0.6,0.7-1.5,1.1-2.6,1.1c-0.3,0-0.6-0.1-1-0.2c-0.3-0.1-0.6-0.3-0.9-0.5c-0.3-0.2-0.5-0.5-0.6-0.8
		C375.3,54.8,375.2,54.4,375.2,54z M376.4,54c0,0.5,0.2,0.9,0.5,1.2s0.8,0.5,1.4,0.5c0.4,0,0.8-0.1,1.2-0.2c0.4-0.2,0.7-0.4,0.9-0.7
		v-1.5c-0.2-0.3-0.5-0.5-0.9-0.7c-0.4-0.2-0.8-0.2-1.2-0.2c-0.6,0-1,0.2-1.4,0.5S376.4,53.5,376.4,54z"/>
	<path class="st9" d="M383,49.7v-1h1.3v-2.1h1.2v2.1h1.6v1h-1.6v4.8c0,0.3,0.1,0.5,0.2,0.7s0.3,0.3,0.6,0.3c0.4,0,0.6-0.1,0.8-0.3
		l0.4,0.9c-0.3,0.3-0.8,0.5-1.4,0.5c-0.6,0-1-0.2-1.3-0.5c-0.3-0.3-0.4-0.8-0.4-1.3v-5.1H383z"/>
	<path class="st9" d="M388.5,48.6c0.3-0.2,0.5-0.4,0.7-0.7s0.3-0.6,0.3-0.8c-0.1,0-0.1,0-0.2,0c-0.2,0-0.4-0.1-0.5-0.2
		s-0.2-0.3-0.2-0.6c0-0.2,0.1-0.4,0.2-0.6c0.2-0.2,0.4-0.2,0.6-0.2c0.3,0,0.5,0.1,0.7,0.3s0.3,0.5,0.3,0.9c0,0.5-0.1,0.9-0.4,1.3
		s-0.5,0.8-0.9,1.1L388.5,48.6z"/>
	<path class="st9" d="M391.8,55.3l0.6-0.9c0.3,0.3,0.6,0.6,1.1,0.8c0.5,0.2,0.9,0.3,1.4,0.3c0.6,0,1-0.1,1.4-0.4
		c0.3-0.2,0.5-0.6,0.5-1c0-0.2-0.1-0.5-0.3-0.6s-0.4-0.3-0.7-0.4c-0.3-0.1-0.6-0.2-0.9-0.3c-0.3-0.1-0.7-0.2-1-0.3s-0.7-0.2-0.9-0.4
		s-0.5-0.4-0.7-0.6s-0.3-0.6-0.3-1c0-0.6,0.3-1.2,0.8-1.6c0.5-0.4,1.2-0.6,2.1-0.6c1.2,0,2.1,0.4,2.9,1.1l-0.6,0.8
		c-0.2-0.3-0.6-0.5-1-0.7s-0.9-0.3-1.3-0.3c-0.5,0-0.9,0.1-1.2,0.4s-0.5,0.5-0.5,0.9c0,0.2,0.1,0.4,0.3,0.6c0.2,0.2,0.4,0.3,0.7,0.4
		c0.3,0.1,0.6,0.2,0.9,0.3c0.3,0.1,0.7,0.2,1,0.3c0.3,0.1,0.7,0.2,0.9,0.4c0.3,0.2,0.5,0.4,0.7,0.7s0.3,0.6,0.3,1
		c0,0.7-0.3,1.2-0.8,1.7c-0.5,0.4-1.3,0.7-2.2,0.7C393.6,56.6,392.6,56.2,391.8,55.3z"/>
	<path class="st9" d="M404,56.4v-7.7h1.2v1.1c0.3-0.4,0.7-0.7,1.2-0.9s1-0.4,1.6-0.4c1.6,0,2.5,0.8,2.5,2.5v5.4h-1.2v-5.1
		c0-0.7-0.2-1.1-0.5-1.4s-0.7-0.4-1.3-0.4c-0.4,0-0.9,0.1-1.3,0.4s-0.7,0.5-1,0.9v5.6H404z"/>
	<path class="st9" d="M412.9,54.6c-0.3-0.6-0.5-1.3-0.5-2s0.2-1.4,0.5-2c0.3-0.6,0.8-1.1,1.3-1.5c0.6-0.4,1.3-0.5,2-0.5
		s1.4,0.2,2,0.5c0.6,0.4,1,0.9,1.3,1.5c0.3,0.6,0.5,1.3,0.5,2s-0.2,1.4-0.5,2s-0.8,1.1-1.3,1.5s-1.3,0.5-2,0.5s-1.4-0.2-2-0.5
		S413.2,55.2,412.9,54.6z M413.7,52.5c0,0.8,0.2,1.5,0.7,2.1c0.5,0.6,1.1,0.9,1.9,0.9c0.5,0,1-0.1,1.4-0.4c0.4-0.3,0.7-0.6,0.9-1.1
		c0.2-0.4,0.3-0.9,0.3-1.5c0-0.5-0.1-1-0.3-1.5s-0.5-0.8-0.9-1.1c-0.4-0.3-0.9-0.4-1.4-0.4s-1,0.1-1.4,0.4c-0.4,0.3-0.7,0.6-0.9,1.1
		C413.8,51.5,413.7,52,413.7,52.5z"/>
	<path class="st9" d="M421,49.7v-1h1.3v-2.1h1.2v2.1h1.6v1h-1.6v4.8c0,0.3,0.1,0.5,0.2,0.7s0.3,0.3,0.6,0.3c0.4,0,0.6-0.1,0.8-0.3
		l0.4,0.9c-0.3,0.3-0.8,0.5-1.4,0.5c-0.6,0-1-0.2-1.3-0.5c-0.3-0.3-0.4-0.8-0.4-1.3v-5.1H421z"/>
	<path class="st9" d="M430.4,54c0-0.4,0.1-0.8,0.2-1.1c0.2-0.3,0.4-0.6,0.6-0.8s0.5-0.4,0.8-0.5c0.3-0.1,0.6-0.2,1-0.2
		c1.1,0,2,0.3,2.6,1v-1.4c0-0.5-0.2-0.9-0.5-1.2s-0.8-0.4-1.4-0.4c-0.9,0-1.7,0.4-2.4,1.1l-0.6-0.8c0.8-0.9,1.8-1.3,3.1-1.3
		c0.4,0,0.8,0,1.2,0.1c0.4,0.1,0.7,0.2,0.9,0.4c0.3,0.2,0.5,0.5,0.6,0.8c0.2,0.3,0.2,0.7,0.2,1.2v5.3h-1.2v-0.9
		c-0.6,0.7-1.5,1.1-2.6,1.1c-0.3,0-0.6-0.1-1-0.2c-0.3-0.1-0.6-0.3-0.9-0.5c-0.3-0.2-0.5-0.5-0.6-0.8
		C430.5,54.8,430.4,54.4,430.4,54z M431.6,54c0,0.5,0.2,0.9,0.5,1.2s0.8,0.5,1.4,0.5c0.4,0,0.8-0.1,1.2-0.2c0.4-0.2,0.7-0.4,0.9-0.7
		v-1.5c-0.2-0.3-0.5-0.5-0.9-0.7c-0.4-0.2-0.8-0.2-1.2-0.2c-0.6,0-1,0.2-1.4,0.5S431.6,53.5,431.6,54z"/>
	<path class="st9" d="M439.3,56.4v-7.7h1.2v1.1c0.3-0.4,0.7-0.7,1.2-0.9s1-0.4,1.6-0.4c1.6,0,2.5,0.8,2.5,2.5v5.4h-1.2v-5.1
		c0-0.7-0.2-1.1-0.5-1.4s-0.7-0.4-1.3-0.4c-0.4,0-0.9,0.1-1.3,0.4s-0.7,0.5-1,0.9v5.6H439.3z"/>
	<path class="st9" d="M452.3,54.6c-0.3-0.6-0.5-1.3-0.5-2s0.2-1.4,0.5-2c0.3-0.6,0.8-1.1,1.3-1.5c0.6-0.4,1.3-0.5,2-0.5
		s1.4,0.2,2,0.5c0.6,0.4,1,0.9,1.3,1.5c0.3,0.6,0.5,1.3,0.5,2s-0.2,1.4-0.5,2s-0.8,1.1-1.3,1.5s-1.3,0.5-2,0.5s-1.4-0.2-2-0.5
		S452.6,55.2,452.3,54.6z M453.1,52.5c0,0.8,0.2,1.5,0.7,2.1c0.5,0.6,1.1,0.9,1.9,0.9c0.5,0,1-0.1,1.4-0.4c0.4-0.3,0.7-0.6,0.9-1.1
		c0.2-0.4,0.3-0.9,0.3-1.5c0-0.5-0.1-1-0.3-1.5s-0.5-0.8-0.9-1.1c-0.4-0.3-0.9-0.4-1.4-0.4s-1,0.1-1.4,0.4c-0.4,0.3-0.7,0.6-0.9,1.1
		C453.2,51.5,453.1,52,453.1,52.5z"/>
	<path class="st9" d="M461.4,54.1v-5.5h1.2v5.1c0,0.6,0.1,1.1,0.4,1.4c0.3,0.3,0.7,0.4,1.3,0.4c0.4,0,0.9-0.1,1.3-0.3
		c0.4-0.2,0.7-0.5,1-0.8v-5.7h1.2v7.7h-1.2v-1.1c-0.3,0.4-0.7,0.7-1.2,0.9s-1,0.4-1.5,0.4C462.3,56.6,461.4,55.7,461.4,54.1z"/>
	<path class="st9" d="M469.2,49.7v-1h1.3v-2.1h1.2v2.1h1.6v1h-1.6v4.8c0,0.3,0.1,0.5,0.2,0.7s0.3,0.3,0.6,0.3c0.4,0,0.6-0.1,0.8-0.3
		l0.4,0.9c-0.3,0.3-0.8,0.5-1.4,0.5c-0.6,0-1-0.2-1.3-0.5c-0.3-0.3-0.4-0.8-0.4-1.3v-5.1H469.2z"/>
	<path class="st9" d="M474.9,56.4V45.7h1.2v10.7H474.9z"/>
	<path class="st9" d="M478.6,47.3c-0.2-0.2-0.2-0.3-0.2-0.6s0.1-0.4,0.2-0.6s0.4-0.2,0.6-0.2s0.4,0.1,0.6,0.2s0.2,0.4,0.2,0.6
		s-0.1,0.4-0.2,0.6s-0.3,0.2-0.6,0.2S478.7,47.5,478.6,47.3z M478.5,56.4v-7.7h1.2v7.7H478.5z"/>
	<path class="st9" d="M481.7,52.5c0-0.7,0.2-1.4,0.5-2c0.3-0.6,0.8-1.1,1.4-1.5c0.6-0.4,1.2-0.5,2-0.5c0.8,0,1.4,0.2,2,0.6
		c0.6,0.4,1,0.9,1.3,1.5s0.4,1.3,0.4,2.1v0.3h-6.3c0,0.8,0.3,1.4,0.8,1.9c0.5,0.5,1.1,0.8,2,0.8c0.5,0,0.9-0.1,1.3-0.3
		s0.8-0.4,1.1-0.7l0.6,0.8c-0.8,0.8-1.8,1.2-3.1,1.2c-1.2,0-2.1-0.4-2.8-1.1S481.7,53.7,481.7,52.5z M482.9,52h5.1
		c0-0.3-0.1-0.6-0.2-0.9s-0.3-0.6-0.5-0.8s-0.5-0.5-0.8-0.6s-0.7-0.2-1.1-0.2c-0.4,0-0.8,0.1-1.1,0.2c-0.3,0.2-0.6,0.4-0.8,0.6
		c-0.2,0.3-0.4,0.5-0.5,0.8C483,51.4,482.9,51.7,482.9,52z"/>
	<path class="st9" d="M491.1,56.4v-7.7h1.2v1.2c0.3-0.4,0.7-0.8,1.2-1s0.9-0.4,1.4-0.4v1.2c-0.2,0-0.3,0-0.5,0
		c-0.4,0-0.8,0.1-1.2,0.4s-0.7,0.5-0.9,0.9v5.5H491.1z"/>
</g>
<g class="st10">
	<path class="st9" d="M444,173.4v-5.5h1.2v5.1c0,0.6,0.1,1.1,0.4,1.4c0.3,0.3,0.7,0.4,1.3,0.4c0.4,0,0.9-0.1,1.3-0.3
		c0.4-0.2,0.7-0.5,1-0.8v-5.7h1.2v7.7h-1.2v-1.1c-0.3,0.4-0.7,0.7-1.2,0.9s-1,0.4-1.5,0.4C444.8,175.9,444,175,444,173.4z"/>
	<path class="st9" d="M452.8,178.6v-10.7h1.2v1.1c0.3-0.4,0.7-0.7,1.1-1s1-0.4,1.5-0.4c1,0,1.9,0.4,2.5,1.1c0.6,0.7,1,1.7,1,3
		c0,1.2-0.3,2.2-1,3c-0.6,0.7-1.5,1.1-2.5,1.1c-0.5,0-1-0.1-1.4-0.4s-0.8-0.6-1.2-1v4.1H452.8z M454,173.5c0.2,0.3,0.5,0.6,1,0.9
		c0.4,0.2,0.9,0.4,1.3,0.4c0.8,0,1.4-0.3,1.8-0.8c0.4-0.6,0.7-1.3,0.7-2.2s-0.2-1.6-0.7-2.1c-0.4-0.6-1.1-0.8-1.8-0.8
		c-0.5,0-0.9,0.1-1.3,0.4c-0.4,0.2-0.8,0.5-1,0.9V173.5z"/>
	<path class="st9" d="M462,178.6v-10.7h1.2v1.1c0.3-0.4,0.7-0.7,1.1-1s1-0.4,1.5-0.4c1,0,1.9,0.4,2.5,1.1c0.6,0.7,1,1.7,1,3
		c0,1.2-0.3,2.2-1,3c-0.6,0.7-1.5,1.1-2.5,1.1c-0.5,0-1-0.1-1.4-0.4s-0.8-0.6-1.2-1v4.1H462z M463.2,173.5c0.2,0.3,0.5,0.6,1,0.9
		c0.4,0.2,0.9,0.4,1.3,0.4c0.8,0,1.4-0.3,1.8-0.8c0.4-0.6,0.7-1.3,0.7-2.2s-0.2-1.6-0.7-2.1c-0.4-0.6-1.1-0.8-1.8-0.8
		c-0.5,0-0.9,0.1-1.3,0.4c-0.4,0.2-0.8,0.5-1,0.9V173.5z"/>
	<path class="st9" d="M470.7,171.8c0-0.7,0.2-1.4,0.5-2s0.8-1.1,1.4-1.5c0.6-0.4,1.2-0.5,2-0.5c0.8,0,1.4,0.2,2,0.6s1,0.9,1.3,1.5
		s0.4,1.3,0.4,2.1v0.3h-6.3c0,0.8,0.3,1.4,0.8,1.9s1.1,0.8,2,0.8c0.5,0,0.9-0.1,1.3-0.3c0.4-0.2,0.8-0.4,1.1-0.7l0.6,0.8
		c-0.8,0.8-1.8,1.2-3.1,1.2c-1.2,0-2.1-0.4-2.8-1.1C471.1,174,470.7,173,470.7,171.8z M471.9,171.3h5.1c0-0.3-0.1-0.6-0.2-0.9
		c-0.1-0.3-0.3-0.6-0.5-0.8s-0.5-0.5-0.8-0.6c-0.3-0.2-0.7-0.2-1.1-0.2c-0.4,0-0.8,0.1-1.1,0.2s-0.6,0.4-0.8,0.6
		c-0.2,0.3-0.4,0.5-0.5,0.8C472,170.7,471.9,171,471.9,171.3z"/>
	<path class="st9" d="M480.1,175.7v-7.7h1.2v1.2c0.3-0.4,0.7-0.8,1.2-1c0.4-0.3,0.9-0.4,1.4-0.4v1.2c-0.2,0-0.3,0-0.5,0
		c-0.4,0-0.8,0.1-1.2,0.4c-0.4,0.3-0.7,0.5-0.9,0.9v5.5H480.1z"/>
	<path class="st9" d="M488.6,169v-1h1.3v-0.6c0-0.8,0.2-1.4,0.6-1.8c0.4-0.4,0.9-0.7,1.6-0.7c0.7,0,1.2,0.2,1.6,0.6l-0.5,0.8
		c-0.3-0.2-0.6-0.4-0.9-0.4c-0.4,0-0.7,0.1-0.9,0.4c-0.2,0.3-0.3,0.6-0.3,1.1v0.6h1.6v1h-1.6v6.7h-1.2V169H488.6z"/>
	<path class="st9" d="M493.6,171.8c0-0.7,0.2-1.4,0.5-2s0.8-1.1,1.4-1.5c0.6-0.4,1.2-0.5,2-0.5c0.8,0,1.4,0.2,2,0.6s1,0.9,1.3,1.5
		s0.4,1.3,0.4,2.1v0.3h-6.3c0,0.8,0.3,1.4,0.8,1.9s1.1,0.8,2,0.8c0.5,0,0.9-0.1,1.3-0.3c0.4-0.2,0.8-0.4,1.1-0.7l0.6,0.8
		c-0.8,0.8-1.8,1.2-3.1,1.2c-1.2,0-2.1-0.4-2.8-1.1C494,174,493.6,173,493.6,171.8z M494.9,171.3h5.1c0-0.3-0.1-0.6-0.2-0.9
		c-0.1-0.3-0.3-0.6-0.5-0.8s-0.5-0.5-0.8-0.6c-0.3-0.2-0.7-0.2-1.1-0.2c-0.4,0-0.8,0.1-1.1,0.2s-0.6,0.4-0.8,0.6
		c-0.2,0.3-0.4,0.5-0.5,0.8C495,170.7,494.9,171,494.9,171.3z"/>
	<path class="st9" d="M503.1,175.7v-7.7h1.2v1.1c0.3-0.4,0.7-0.7,1.2-0.9s1-0.4,1.6-0.4c1.6,0,2.5,0.8,2.5,2.5v5.4h-1.2v-5.1
		c0-0.7-0.2-1.1-0.5-1.4c-0.3-0.3-0.7-0.4-1.3-0.4c-0.4,0-0.9,0.1-1.3,0.4s-0.7,0.5-1,0.9v5.6H503.1z"/>
	<path class="st9" d="M511.5,171.8c0-0.8,0.2-1.4,0.5-2.1s0.8-1.1,1.4-1.5c0.6-0.4,1.3-0.5,2-0.5c1.2,0,2.1,0.4,2.8,1.3l-0.8,0.7
		c-0.5-0.7-1.1-1-2-1c-0.8,0-1.5,0.3-1.9,0.8c-0.5,0.6-0.7,1.3-0.7,2.1s0.2,1.6,0.7,2.2c0.5,0.6,1.1,0.8,1.9,0.8c0.8,0,1.5-0.3,2-1
		l0.8,0.7c-0.7,0.9-1.6,1.3-2.8,1.3c-1.1,0-2.1-0.4-2.8-1.2C511.8,173.9,511.5,173,511.5,171.8z"/>
	<path class="st9" d="M519.4,171.8c0-0.7,0.2-1.4,0.5-2s0.8-1.1,1.4-1.5c0.6-0.4,1.2-0.5,2-0.5c0.8,0,1.4,0.2,2,0.6s1,0.9,1.3,1.5
		s0.4,1.3,0.4,2.1v0.3h-6.3c0,0.8,0.3,1.4,0.8,1.9s1.1,0.8,2,0.8c0.5,0,0.9-0.1,1.3-0.3c0.4-0.2,0.8-0.4,1.1-0.7l0.6,0.8
		c-0.8,0.8-1.8,1.2-3.1,1.2c-1.2,0-2.1-0.4-2.8-1.1C519.8,174,519.4,173,519.4,171.8z M520.7,171.3h5.1c0-0.3-0.1-0.6-0.2-0.9
		c-0.1-0.3-0.3-0.6-0.5-0.8s-0.5-0.5-0.8-0.6c-0.3-0.2-0.7-0.2-1.1-0.2c-0.4,0-0.8,0.1-1.1,0.2s-0.6,0.4-0.8,0.6
		c-0.2,0.3-0.4,0.5-0.5,0.8C520.7,170.7,520.7,171,520.7,171.3z"/>
</g>
<g class="st10">
	<path class="st9" d="M395.9,194.5c0-0.7,0.2-1.4,0.5-2c0.3-0.6,0.8-1.1,1.4-1.5s1.2-0.5,2-0.5c0.8,0,1.4,0.2,2,0.6
		c0.6,0.4,1,0.9,1.3,1.5c0.3,0.6,0.4,1.3,0.4,2.1v0.3h-6.3c0,0.8,0.3,1.4,0.8,1.9s1.1,0.8,2,0.8c0.5,0,0.9-0.1,1.3-0.3
		s0.8-0.4,1.1-0.7l0.6,0.8c-0.8,0.8-1.8,1.2-3.1,1.2c-1.2,0-2.1-0.4-2.8-1.1C396.3,196.7,395.9,195.7,395.9,194.5z M397.2,194h5.1
		c0-0.3-0.1-0.6-0.2-0.9c-0.1-0.3-0.3-0.6-0.5-0.8s-0.5-0.5-0.8-0.6c-0.3-0.2-0.7-0.2-1.1-0.2c-0.4,0-0.8,0.1-1.1,0.2
		s-0.6,0.4-0.8,0.6s-0.4,0.5-0.5,0.8C397.3,193.4,397.2,193.7,397.2,194z"/>
	<path class="st9" d="M404.9,194.5c0-1.2,0.3-2.2,0.9-3s1.5-1.1,2.5-1.1c0.5,0,1,0.1,1.5,0.4s0.8,0.6,1.1,1v-1.1h1.2v10.7h-1.2v-4.1
		c-0.3,0.4-0.7,0.8-1.2,1s-0.9,0.4-1.4,0.4c-1,0-1.9-0.4-2.5-1.1S404.9,195.7,404.9,194.5z M406.8,192.3c-0.4,0.6-0.7,1.3-0.7,2.1
		s0.2,1.6,0.7,2.2s1,0.8,1.8,0.8c0.5,0,0.9-0.1,1.3-0.4c0.4-0.2,0.8-0.5,1-0.9v-3.5c-0.2-0.3-0.5-0.6-1-0.9
		c-0.4-0.2-0.9-0.4-1.3-0.4C407.9,191.5,407.3,191.8,406.8,192.3z"/>
	<path class="st9" d="M414.5,196.1v-5.5h1.2v5.1c0,0.6,0.1,1.1,0.4,1.4c0.3,0.3,0.7,0.4,1.3,0.4c0.4,0,0.9-0.1,1.3-0.3
		c0.4-0.2,0.7-0.5,1-0.8v-5.7h1.2v7.7h-1.2v-1.1c-0.3,0.4-0.7,0.7-1.2,0.9s-1,0.4-1.5,0.4C415.4,198.6,414.5,197.7,414.5,196.1z"/>
	<path class="st9" d="M422.9,196c0-0.4,0.1-0.8,0.2-1.1s0.4-0.6,0.6-0.8s0.5-0.4,0.8-0.5c0.3-0.1,0.6-0.2,1-0.2c1.1,0,2,0.3,2.6,1
		v-1.4c0-0.5-0.2-0.9-0.5-1.2s-0.8-0.4-1.4-0.4c-0.9,0-1.7,0.4-2.4,1.1l-0.6-0.8c0.8-0.9,1.8-1.3,3.1-1.3c0.4,0,0.8,0,1.2,0.1
		c0.4,0.1,0.7,0.2,0.9,0.4s0.5,0.5,0.6,0.8c0.2,0.3,0.2,0.7,0.2,1.2v5.3h-1.2v-0.9c-0.6,0.7-1.5,1.1-2.6,1.1c-0.3,0-0.6-0.1-1-0.2
		c-0.3-0.1-0.6-0.3-0.9-0.5c-0.3-0.2-0.5-0.5-0.6-0.8S422.9,196.4,422.9,196z M424.1,196c0,0.5,0.2,0.9,0.5,1.2s0.8,0.5,1.4,0.5
		c0.4,0,0.8-0.1,1.2-0.2s0.7-0.4,0.9-0.7v-1.5c-0.2-0.3-0.5-0.5-0.9-0.7s-0.8-0.2-1.2-0.2c-0.6,0-1,0.2-1.4,0.5
		S424.1,195.5,424.1,196z"/>
	<path class="st9" d="M430.7,191.7v-1h1.3v-2.1h1.2v2.1h1.6v1h-1.6v4.8c0,0.3,0.1,0.5,0.2,0.7s0.3,0.3,0.6,0.3
		c0.4,0,0.6-0.1,0.8-0.3l0.4,0.9c-0.3,0.3-0.8,0.5-1.4,0.5c-0.6,0-1-0.2-1.3-0.5c-0.3-0.3-0.4-0.8-0.4-1.3v-5.1H430.7z"/>
	<path class="st9" d="M436.5,189.3c-0.2-0.2-0.2-0.3-0.2-0.6s0.1-0.4,0.2-0.6s0.4-0.2,0.6-0.2s0.4,0.1,0.6,0.2s0.2,0.4,0.2,0.6
		s-0.1,0.4-0.2,0.6s-0.3,0.2-0.6,0.2S436.7,189.5,436.5,189.3z M436.5,198.4v-7.7h1.2v7.7H436.5z"/>
	<path class="st9" d="M440.1,196.5c-0.3-0.6-0.5-1.3-0.5-2s0.2-1.4,0.5-2c0.3-0.6,0.8-1.1,1.3-1.5c0.6-0.4,1.3-0.5,2-0.5
		s1.4,0.2,2,0.5c0.6,0.4,1,0.9,1.3,1.5c0.3,0.6,0.5,1.3,0.5,2s-0.2,1.4-0.5,2s-0.8,1.1-1.3,1.5s-1.3,0.5-2,0.5s-1.4-0.2-2-0.5
		S440.4,197.2,440.1,196.5z M440.9,194.5c0,0.8,0.2,1.5,0.7,2.1c0.5,0.6,1.1,0.9,1.9,0.9c0.5,0,1-0.1,1.4-0.4
		c0.4-0.3,0.7-0.6,0.9-1.1c0.2-0.4,0.3-0.9,0.3-1.5c0-0.5-0.1-1-0.3-1.5s-0.5-0.8-0.9-1.1c-0.4-0.3-0.9-0.4-1.4-0.4s-1,0.1-1.4,0.4
		c-0.4,0.3-0.7,0.6-0.9,1.1C441,193.5,440.9,194,440.9,194.5z"/>
	<path class="st9" d="M449.2,198.4v-7.7h1.2v1.1c0.3-0.4,0.7-0.7,1.2-0.9s1-0.4,1.6-0.4c1.6,0,2.5,0.8,2.5,2.5v5.4h-1.2v-5.1
		c0-0.7-0.2-1.1-0.5-1.4s-0.7-0.4-1.3-0.4c-0.4,0-0.9,0.1-1.3,0.4s-0.7,0.5-1,0.9v5.6H449.2z"/>
	<path class="st9" d="M457.8,191.3c0-0.2,0.1-0.4,0.2-0.6c0.2-0.2,0.4-0.2,0.6-0.2c0.2,0,0.4,0.1,0.6,0.2c0.2,0.2,0.2,0.3,0.2,0.6
		c0,0.2-0.1,0.4-0.2,0.6c-0.2,0.2-0.3,0.2-0.6,0.2c-0.2,0-0.4-0.1-0.6-0.2S457.8,191.5,457.8,191.3z M458.1,198.3
		c-0.2-0.2-0.2-0.3-0.2-0.6s0.1-0.4,0.2-0.6c0.2-0.2,0.4-0.2,0.6-0.2c0.2,0,0.4,0.1,0.6,0.2c0.2,0.2,0.2,0.4,0.2,0.6
		s-0.1,0.4-0.2,0.6s-0.3,0.2-0.6,0.2C458.4,198.5,458.2,198.4,458.1,198.3z"/>
</g>
<g class="st10">
	<path class="st9" d="M484.8,198.5c0,0.7-0.1,1.3-0.4,1.8c-0.3,0.7-0.8,1-1.5,1c-0.7,0-1.1-0.3-1.4-1c-0.2-0.4-0.3-1-0.4-1.9
		c-0.5,0.2-1,0.2-1.5,0.2c-1.5,0-2.7-0.6-3.7-1.7c-1-1.1-1.4-2.4-1.4-3.9c0-1.5,0.5-2.8,1.4-3.9c1-1.2,2.2-1.7,3.7-1.7
		c1.5,0,2.7,0.6,3.7,1.7c0.9,1.1,1.4,2.4,1.4,3.9c0,1.1-0.3,2.1-0.8,3c-0.6,1-1.3,1.7-2.3,2.1c0.3,1,0.8,1.5,1.5,1.5
		c0.7,0,1.2-0.4,1.4-1.3c0-0.2,0.1-0.3,0.2-0.3C484.8,198.2,484.8,198.3,484.8,198.5z M483.2,193.1c0-2.4-0.7-4-2-4.8
		c-0.5-0.3-1-0.5-1.5-0.5c-0.5,0-1,0.1-1.5,0.4c-1.4,0.8-2.1,2.4-2.1,4.8c0,1.1,0.2,2.1,0.5,2.9c0.4,1,1.1,1.7,2,2.1
		c-0.1-0.2-0.2-0.5-0.2-0.7c0-0.4,0.1-0.7,0.4-0.9s0.5-0.4,0.9-0.4c0.8,0,1.3,0.5,1.7,1.6C482.6,196.8,483.2,195.3,483.2,193.1z
		 M481,198c-0.2-1-0.6-1.5-1.3-1.5c-0.3,0-0.5,0.1-0.7,0.3s-0.3,0.4-0.3,0.7c0,0.3,0.1,0.5,0.3,0.7s0.4,0.3,0.7,0.3
		C480.1,198.3,480.6,198.2,481,198z"/>
</g>
<g class="st10">
	<path class="st9" d="M494.3,199.2c0,0.9-0.4,1.7-1.1,2.3c-0.7,0.6-1.5,0.9-2.4,0.9c-0.8,0-1.6-0.2-2.2-0.6
		c-0.7-0.5-1.1-1.1-1.1-1.9c0-0.3,0.1-0.5,0.2-0.7s0.4-0.3,0.7-0.3c0.3,0,0.5,0.1,0.7,0.3s0.3,0.4,0.3,0.7c0,0.3-0.1,0.5-0.3,0.6
		s-0.4,0.2-0.7,0.2c-0.1,0-0.1,0-0.2,0c0.2,0.4,0.6,0.7,1.1,0.9c0.4,0.2,0.9,0.3,1.4,0.3c0.7,0,1.1-0.3,1.5-0.9
		c0.2-0.5,0.4-1.1,0.4-1.8c0-0.8-0.1-1.4-0.4-1.8c-0.3-0.6-0.8-0.9-1.5-0.9h-0.8c-0.2,0-0.3-0.1-0.3-0.2c0-0.1,0.1-0.2,0.4-0.2
		c0.2,0,0.3,0,0.5,0c0.6,0,1.1-0.3,1.4-0.8c0.3-0.5,0.5-1.1,0.5-1.9c0-0.5-0.1-1-0.4-1.3c-0.3-0.4-0.7-0.5-1.2-0.5
		c-1,0-1.7,0.3-2.2,1c0.7,0,1,0.3,1,0.8c0,0.2-0.1,0.4-0.2,0.6s-0.4,0.2-0.6,0.2c-0.2,0-0.5-0.1-0.6-0.2s-0.2-0.4-0.2-0.6
		c0-0.7,0.3-1.2,1-1.7c0.6-0.4,1.2-0.6,1.9-0.6c0.7,0,1.4,0.2,2,0.6c0.7,0.4,1,1,1,1.7c0,0.7-0.2,1.3-0.7,1.8
		c-0.4,0.5-1,0.9-1.6,1.1c0.8,0.2,1.4,0.5,1.9,1C494,197.8,494.3,198.5,494.3,199.2z"/>
</g>
<g>
	<path class="st9" d="M511.1,193.8c0,0.2-0.1,0.3-0.3,0.3h-4.3v4.3c0,0.2-0.1,0.3-0.3,0.3c-0.2,0-0.3-0.1-0.3-0.3v-4.3h-4.3
		c-0.2,0-0.3-0.1-0.3-0.3s0.1-0.3,0.3-0.3h4.3v-4.3c0-0.2,0.1-0.3,0.3-0.3c0.2,0,0.3,0.1,0.3,0.3v4.3h4.3
		C511,193.5,511.1,193.6,511.1,193.8z"/>
	<path class="st9" d="M523.1,198.4c-0.4,0-0.7,0-1.1,0h-3.2c-0.3,0-0.7,0-1.1,0v-0.5c0.1,0,0.2,0,0.3,0s0.2,0,0.3,0
		c0.8,0,1.3-0.1,1.4-0.3c0-0.1,0.1-0.2,0.1-0.4v-8.5c-0.6,0.3-1.3,0.4-2.1,0.4v-0.5c1.3,0,2.3-0.3,3-1h0.1c0.2,0,0.2,0,0.3,0.1
		c0,0,0,0.1,0,0.3v9.2c0,0.2,0,0.3,0.1,0.4c0.1,0.2,0.4,0.3,0.9,0.3c0.1,0,0.4,0,1.1,0V198.4z"/>
	<path class="st9" d="M527.2,197.5c0,0.2-0.1,0.4-0.2,0.6c-0.2,0.2-0.4,0.2-0.6,0.2s-0.4-0.1-0.6-0.2c-0.2-0.2-0.2-0.4-0.2-0.6
		c0-0.2,0.1-0.4,0.2-0.6c0.2-0.2,0.4-0.2,0.6-0.2s0.4,0.1,0.6,0.2C527.2,197.1,527.2,197.3,527.2,197.5z"/>
	<path class="st9" d="M535.6,195.1c0,1-0.3,1.8-1,2.6c-0.7,0.7-1.5,1.1-2.5,1.1c-0.8,0-1.5-0.3-2.1-0.9s-0.9-1.3-0.9-2.1
		c0-0.6,0.3-0.9,0.8-0.9c0.2,0,0.4,0.1,0.6,0.2c0.2,0.2,0.2,0.3,0.2,0.6s-0.1,0.4-0.2,0.6c-0.2,0.2-0.4,0.2-0.6,0.2
		c-0.1,0-0.2,0-0.3,0c0.2,0.5,0.5,1,0.9,1.3c0.5,0.3,0.9,0.5,1.5,0.5c0.8,0,1.3-0.4,1.8-1.1c0.3-0.4,0.4-1.2,0.4-2.2
		c0-0.9-0.1-1.6-0.3-2c-0.3-0.7-0.8-1-1.4-1c-0.5,0-0.9,0.1-1.2,0.3c-0.2,0.1-0.5,0.3-0.7,0.6c-0.2,0.2-0.3,0.3-0.4,0.3
		c-0.2,0-0.2-0.1-0.2-0.3v-5.1c0-0.2,0.1-0.3,0.2-0.3c0,0,0.1,0,0.2,0c0.9,0.3,1.6,0.5,2.2,0.5c0.7,0,1.4-0.2,2.2-0.5
		c0.1,0,0.1,0,0.1,0c0.1,0,0.2,0.1,0.2,0.2c0,0.1-0.1,0.2-0.3,0.4c-0.8,0.8-1.7,1.3-2.9,1.3c-0.4,0-0.9-0.1-1.4-0.2v3.2
		c0.6-0.6,1.3-0.8,2.1-0.8c0.9,0,1.7,0.4,2.3,1.1C535.4,193.3,535.6,194.2,535.6,195.1z"/>
	<path class="st9" d="M540.9,201c0,0.1,0,0.1-0.1,0.1c-0.1,0-0.2-0.1-0.4-0.2c-1.2-1-2-2-2.5-3.1c-0.5-1.1-0.7-2.4-0.7-3.9
		s0.2-2.9,0.7-3.9c0.5-1.1,1.3-2.1,2.5-3.1c0.2-0.2,0.3-0.2,0.4-0.2c0.1,0,0.1,0,0.1,0.1c0,0-0.1,0.1-0.2,0.2
		c-1.6,1.5-2.3,3.8-2.3,6.9s0.8,5.4,2.3,6.9C540.8,200.8,540.9,200.9,540.9,201z"/>
	<path class="st9" d="M547,198.4c-0.4,0-0.7,0-0.9,0h-2.9c-0.2,0-0.5,0-0.9,0v-0.5c0,0,0.1,0,0.2,0c0.1,0,0.2,0,0.2,0
		c0.7,0,1-0.1,1.1-0.3c0-0.1,0.1-0.2,0.1-0.4V189c0-0.2,0-0.3-0.1-0.4c-0.1-0.2-0.5-0.3-1.2-0.3h-0.4v-0.5c0.4,0,0.7,0,0.9,0h2.9
		c0.2,0,0.5,0,0.9,0v0.5c-0.1,0-0.1,0-0.2,0s-0.2,0-0.2,0c-0.4,0-0.7,0-0.8,0.1c-0.3,0.1-0.4,0.3-0.4,0.6v8.3c0,0.1,0,0.3,0.1,0.4
		c0.1,0.2,0.3,0.2,0.7,0.3c0,0,0.3,0,0.9,0V198.4z"/>
	<path class="st9" d="M558.3,198.5c0,0.7-0.1,1.3-0.4,1.8c-0.3,0.7-0.8,1-1.5,1c-0.7,0-1.1-0.3-1.4-1c-0.2-0.4-0.3-1-0.4-1.9
		c-0.5,0.2-1,0.2-1.5,0.2c-1.5,0-2.7-0.6-3.7-1.7c-1-1.1-1.4-2.4-1.4-3.9c0-1.5,0.5-2.8,1.4-3.9c1-1.2,2.2-1.7,3.7-1.7
		c1.5,0,2.7,0.6,3.7,1.7c0.9,1.1,1.4,2.4,1.4,3.9c0,1.1-0.3,2.1-0.8,3c-0.6,1-1.3,1.7-2.3,2.1c0.3,1,0.8,1.5,1.5,1.5
		c0.7,0,1.2-0.4,1.4-1.3c0-0.2,0.1-0.3,0.2-0.3C558.3,198.2,558.3,198.3,558.3,198.5z M556.7,193.1c0-2.4-0.7-4-2-4.8
		c-0.5-0.3-1-0.5-1.5-0.5c-0.5,0-1,0.1-1.5,0.4c-1.4,0.8-2.1,2.4-2.1,4.8c0,1.1,0.2,2.1,0.5,2.9c0.4,1,1.1,1.7,2,2.1
		c-0.1-0.2-0.2-0.5-0.2-0.7c0-0.4,0.1-0.7,0.4-0.9c0.2-0.3,0.5-0.4,0.9-0.4c0.8,0,1.3,0.5,1.7,1.6
		C556.1,196.8,556.7,195.3,556.7,193.1z M554.5,198c-0.2-1-0.6-1.5-1.3-1.5c-0.3,0-0.5,0.1-0.7,0.3s-0.3,0.4-0.3,0.7
		c0,0.3,0.1,0.5,0.3,0.7s0.4,0.3,0.7,0.3C553.6,198.3,554.1,198.2,554.5,198z"/>
	<path class="st9" d="M570.1,197c0,0.4-0.1,0.8-0.4,1.2c-0.3,0.4-0.6,0.5-1.1,0.5c-0.8,0-1.5-0.2-1.9-0.6c-0.4-0.4-0.6-1-0.6-1.9
		c0-0.1,0-0.2,0-0.3c0-0.1,0-0.2,0-0.3c0-0.8-0.2-1.4-0.6-1.8c-0.4-0.3-0.8-0.5-1.4-0.5h-1.8v4c0,0.2,0,0.3,0.1,0.4
		c0.1,0.2,0.6,0.3,1.5,0.3v0.5c-0.4,0-0.8,0-1.1,0h-2.3c-0.4,0-0.7,0-1.1,0v-0.5c0,0,0.1,0,0.2,0c0.1,0,0.2,0,0.2,0
		c0.7,0,1-0.1,1.1-0.3c0-0.1,0.1-0.2,0.1-0.4V189c0-0.1,0-0.3,0-0.4c-0.1-0.2-0.6-0.3-1.5-0.3v-0.5h4.8c1,0,1.8,0.2,2.6,0.7
		c0.9,0.5,1.4,1.2,1.4,2.1c0,0.6-0.3,1.2-0.9,1.7c-0.5,0.4-1.1,0.7-1.8,0.8c0.9,0.3,1.4,0.8,1.8,1.4c0.1,0.3,0.2,0.7,0.3,1.3
		c0.1,0.4,0.1,0.9,0.2,1.3c0.2,0.8,0.5,1.2,0.9,1.2c0.5,0,0.9-0.5,1-1.4c0-0.2,0.1-0.2,0.2-0.2C570,196.8,570.1,196.8,570.1,197z
		 M566.6,190.6c0-1-0.4-1.7-1.1-2c-0.4-0.2-1.3-0.3-2.5-0.3c-0.3,0-0.4,0-0.5,0.1c-0.2,0.1-0.2,0.2-0.2,0.4v4.1h1.7
		C565.8,192.9,566.6,192.2,566.6,190.6z"/>
	<path class="st9" d="M575.3,193.8c0,1.5-0.2,2.9-0.7,3.9c-0.5,1.1-1.3,2.1-2.5,3.1c-0.2,0.2-0.3,0.2-0.4,0.2c-0.1,0-0.1,0-0.1-0.1
		c0,0,0.1-0.1,0.2-0.2c1.6-1.5,2.3-3.8,2.3-6.9s-0.8-5.4-2.3-6.9c-0.1-0.1-0.2-0.2-0.2-0.2c0-0.1,0-0.1,0.1-0.1
		c0.1,0,0.2,0.1,0.4,0.2c1.2,1,2,2,2.5,3.1C575,191,575.3,192.3,575.3,193.8z"/>
</g>
<g>
	
		<path id="path12112" inkscape:connector-curvature="0" inkscape:original-d="m 172.5653,915.8077 c 0,0 0.40277,6.19831 0,9.25786 -0.41312,3.13805 -0.87503,6.43075 -2.45762,9.17182 -1.56692,2.71394 -6.64779,6.64782 -6.64779,6.64782" inkscape:path-effect="#path-effect12195" sodipodi:nodetypes="cssc" class="st5" d="
		M35.8,126.8c-0.3,3.1-0.3,6.2,0,9.3c0.3,3.2,1,6.4,2.5,9.2c1.5,2.8,3.8,5.1,6.6,6.6"/>
	<g id="g12114" transform="matrix(-.71214 0 0 -.71214 162.6 1010.7)">
		<g id="g12116" transform="matrix(0 1 -1 0 -9.0805 129.38)">
			<path id="path12118" inkscape:connector-curvature="0" class="st11" d="M1107.9-191.9l4.9,4.9"/>
			<path id="path12120" inkscape:connector-curvature="0" class="st11" d="M1112.8-187.1l-4.9,4.9"/>
		</g>
	</g>
</g>
<g id="g12150" transform="matrix(-.71214 0 0 -.71214 191.54 1036)">
	<g id="g12152" transform="matrix(0 1 -1 0 -9.0805 129.38)">
		<path id="path12154" inkscape:connector-curvature="0" class="st11" d="M1095.8,42.5l4.9-4.9"/>
		<path id="path12156" inkscape:connector-curvature="0" class="st11" d="M1100.7,37.6l-4.9-4.9"/>
	</g>
</g>
<g id="g12122" transform="matrix(.71214 0 0 -.71214 1321 1264.8)">
	
		<path id="path12124" inkscape:connector-curvature="0" inkscape:original-d="m -1258,489.3622 c 0,0 -0.5656,-8.70374 0,-13 0.5801,-4.40648 1.2287,-9.03011 3.451,-12.87916 2.2003,-3.81096 9.3349,-9.33494 9.3349,-9.33494" inkscape:path-effect="#path-effect11880" sodipodi:nodetypes="cssc" class="st5" d="
		M-1100.9,1591.9c0.4-4.3,0.4-8.7,0-13c-0.4-4.5-1.3-8.9-3.5-12.9c-2.1-3.9-5.4-7.2-9.3-9.3"/>
	<g id="g12126" transform="translate(-1244 356.11)">
		<g id="g12128" transform="matrix(0 1 -1 0 -9.0805 129.38)">
			<path id="path12130" inkscape:connector-curvature="0" class="st11" d="M1102.5-156.9l4.9,4.9"/>
			<path id="path12132" inkscape:connector-curvature="0" class="st11" d="M1107.4-152.1l-4.9,4.9"/>
		</g>
	</g>
</g>
<path id="path12134" inkscape:connector-curvature="0" inkscape:original-d="m 201.50592,941.282 c 0,0 0,28.04009 0,31.76195 0,3.72186 1.12126,9.17339 0,12.90033 -1.12127,3.72695 -5.76674,8.71647 -5.76674,8.71647" inkscape:path-effect="#path-effect12136" sodipodi:nodetypes="cssc" class="st5" d="
	M224.5,160.9v31.8c0,2.2,0.1,4.3,0.2,6.5c0.1,2.2,0.2,4.3-0.2,6.4c-0.6,3.5-2.8,6.7-5.8,8.7"/>
<g class="st10">
	<path class="st9" d="M207.2,228.1c0,0.7-0.1,1.3-0.4,1.8c-0.3,0.7-0.8,1-1.5,1c-0.7,0-1.1-0.3-1.4-1c-0.2-0.4-0.3-1-0.4-1.9
		c-0.5,0.2-1,0.2-1.5,0.2c-1.5,0-2.7-0.6-3.7-1.7c-1-1.1-1.4-2.4-1.4-3.9c0-1.5,0.5-2.8,1.4-3.9c1-1.2,2.2-1.7,3.7-1.7
		c1.5,0,2.7,0.6,3.7,1.7c0.9,1.1,1.4,2.4,1.4,3.9c0,1.1-0.3,2.1-0.8,3c-0.6,1-1.3,1.7-2.3,2.1c0.3,1,0.8,1.5,1.5,1.5
		c0.7,0,1.2-0.4,1.4-1.3c0-0.2,0.1-0.3,0.2-0.3C207.2,227.7,207.2,227.8,207.2,228.1z M205.6,222.7c0-2.4-0.7-4-2-4.8
		c-0.5-0.3-1-0.5-1.5-0.5c-0.5,0-1,0.1-1.5,0.4c-1.4,0.8-2.1,2.4-2.1,4.8c0,1.1,0.2,2.1,0.5,2.9c0.4,1,1.1,1.7,2,2.1
		c-0.1-0.2-0.2-0.5-0.2-0.7c0-0.4,0.1-0.7,0.4-0.9c0.2-0.3,0.5-0.4,0.9-0.4c0.8,0,1.3,0.5,1.7,1.6
		C205,226.4,205.6,224.8,205.6,222.7z M203.4,227.5c-0.2-1-0.6-1.5-1.3-1.5c-0.3,0-0.5,0.1-0.7,0.3s-0.3,0.4-0.3,0.7
		c0,0.3,0.1,0.5,0.3,0.7s0.4,0.3,0.7,0.3C202.5,227.9,203,227.7,203.4,227.5z"/>
</g>
<g class="st10">
	<path class="st9" d="M216,231.5c-0.4,0-0.7,0-1.1,0h-3.2c-0.3,0-0.7,0-1.1,0v-0.5c0.1,0,0.2,0,0.3,0s0.2,0,0.3,0
		c0.8,0,1.3-0.1,1.4-0.3c0-0.1,0.1-0.2,0.1-0.4v-8.5c-0.6,0.3-1.3,0.4-2.1,0.4v-0.5c1.3,0,2.3-0.3,3-1h0.1c0.2,0,0.2,0,0.3,0.1
		c0,0,0,0.1,0,0.3v9.2c0,0.2,0,0.3,0.1,0.4c0.1,0.2,0.4,0.3,0.9,0.3c0.1,0,0.4,0,1.1,0V231.5z"/>
</g>
<g class="st10">
	<path class="st9" d="M144.5,244.3v-1h1.3v-0.6c0-0.8,0.2-1.4,0.6-1.8s0.9-0.7,1.6-0.7c0.5,0,0.9,0.1,1.2,0.2l-0.3,0.9
		c-0.2-0.1-0.4-0.2-0.7-0.2c-0.4,0-0.7,0.1-0.9,0.4c-0.2,0.3-0.3,0.6-0.3,1.1v0.6h1.6v1H147v6.7h-1.2v-6.7H144.5z M150,242
		c-0.2-0.2-0.2-0.3-0.2-0.6s0.1-0.4,0.2-0.6s0.3-0.2,0.6-0.2s0.4,0.1,0.6,0.2s0.2,0.4,0.2,0.6s-0.1,0.4-0.2,0.6
		c-0.2,0.2-0.3,0.2-0.6,0.2S150.2,242.1,150,242z M150,251v-7.7h1.2v7.7H150z"/>
	<path class="st9" d="M153.6,251v-7.7h1.2v1.2c0.3-0.4,0.7-0.8,1.2-1c0.4-0.3,0.9-0.4,1.4-0.4v1.2c-0.2,0-0.3,0-0.5,0
		c-0.4,0-0.8,0.1-1.2,0.4c-0.4,0.3-0.7,0.5-0.9,0.9v5.5H153.6z"/>
	<path class="st9" d="M158.2,250l0.6-0.9c0.3,0.3,0.6,0.6,1.1,0.8c0.5,0.2,0.9,0.3,1.4,0.3c0.6,0,1-0.1,1.4-0.4
		c0.3-0.2,0.5-0.6,0.5-1c0-0.2-0.1-0.5-0.3-0.6c-0.2-0.2-0.4-0.3-0.7-0.4c-0.3-0.1-0.6-0.2-0.9-0.3c-0.3-0.1-0.7-0.2-1-0.3
		c-0.3-0.1-0.7-0.2-0.9-0.4s-0.5-0.4-0.7-0.6c-0.2-0.3-0.3-0.6-0.3-1c0-0.6,0.3-1.2,0.8-1.6c0.5-0.4,1.2-0.6,2.1-0.6
		c1.2,0,2.1,0.4,2.9,1.1l-0.6,0.8c-0.2-0.3-0.6-0.5-1-0.7s-0.9-0.3-1.3-0.3c-0.5,0-0.9,0.1-1.2,0.4c-0.3,0.2-0.5,0.5-0.5,0.9
		c0,0.2,0.1,0.4,0.3,0.6c0.2,0.2,0.4,0.3,0.7,0.4c0.3,0.1,0.6,0.2,0.9,0.3c0.3,0.1,0.7,0.2,1,0.3c0.3,0.1,0.7,0.2,0.9,0.4
		c0.3,0.2,0.5,0.4,0.7,0.7s0.3,0.6,0.3,1c0,0.7-0.3,1.2-0.8,1.7c-0.5,0.4-1.3,0.7-2.2,0.7C160,251.2,159,250.8,158.2,250z"/>
	<path class="st9" d="M165.2,244.3v-1h1.3v-2.1h1.2v2.1h1.6v1h-1.6v4.8c0,0.3,0.1,0.5,0.2,0.7c0.1,0.2,0.3,0.3,0.6,0.3
		c0.4,0,0.6-0.1,0.8-0.3l0.4,0.9c-0.3,0.3-0.8,0.5-1.4,0.5c-0.6,0-1-0.2-1.3-0.5c-0.3-0.3-0.4-0.8-0.4-1.3v-5.1H165.2z"/>
</g>
<g class="st10">
	<path class="st9" d="M184.5,248.2L184,251h-6v-0.1c0-0.2,0.1-0.3,0.2-0.5l3.1-3.5c1.1-1.3,1.7-2.5,1.7-3.6c0-0.7-0.2-1.3-0.5-1.8
		c-0.4-0.6-0.9-0.8-1.6-0.8c-0.5,0-1,0.2-1.4,0.5c-0.4,0.3-0.7,0.7-0.9,1.2c0,0,0.1,0,0.1,0c0.6,0,0.9,0.3,0.9,0.9
		c0,0.2-0.1,0.4-0.2,0.6c-0.2,0.2-0.4,0.2-0.6,0.2c-0.6,0-0.9-0.3-0.9-0.9c0-0.8,0.3-1.5,0.9-2.1c0.6-0.6,1.3-0.9,2.1-0.9
		c1,0,1.8,0.3,2.4,0.8c0.7,0.6,1,1.4,1,2.3c0,0.6-0.2,1.2-0.6,1.8c-0.2,0.3-0.7,0.8-1.3,1.4l-3.3,3.2h3.2c0.7,0,1.1,0,1.2-0.1
		c0.1-0.1,0.2-0.6,0.4-1.4H184.5z"/>
	<path class="st9" d="M192.5,247.8c0,1-0.3,1.8-1,2.6c-0.7,0.7-1.5,1.1-2.5,1.1c-0.8,0-1.5-0.3-2.1-0.9s-0.9-1.3-0.9-2.1
		c0-0.6,0.3-0.9,0.8-0.9c0.2,0,0.4,0.1,0.6,0.2c0.2,0.2,0.2,0.3,0.2,0.6s-0.1,0.4-0.2,0.6c-0.2,0.2-0.4,0.2-0.6,0.2
		c-0.1,0-0.2,0-0.3,0c0.2,0.5,0.5,1,0.9,1.3c0.5,0.3,0.9,0.5,1.5,0.5c0.8,0,1.3-0.4,1.8-1.1c0.3-0.4,0.4-1.2,0.4-2.2
		c0-0.9-0.1-1.6-0.3-2c-0.3-0.7-0.8-1-1.4-1c-0.5,0-0.9,0.1-1.2,0.3c-0.2,0.1-0.5,0.3-0.7,0.6c-0.2,0.2-0.3,0.3-0.4,0.3
		c-0.2,0-0.2-0.1-0.2-0.3v-5.1c0-0.2,0.1-0.3,0.2-0.3c0,0,0.1,0,0.2,0c0.9,0.3,1.6,0.5,2.2,0.5c0.7,0,1.4-0.2,2.2-0.5
		c0.1,0,0.1,0,0.1,0c0.1,0,0.2,0.1,0.2,0.2c0,0.1-0.1,0.2-0.3,0.4c-0.8,0.8-1.7,1.3-2.9,1.3c-0.4,0-0.9-0.1-1.4-0.2v3.2
		c0.6-0.6,1.3-0.8,2.1-0.8c0.9,0,1.7,0.4,2.3,1.1C192.2,246,192.5,246.8,192.5,247.8z"/>
	<path class="st9" d="M203.8,239.6c0,0.1,0,0.2-0.1,0.3l-8.1,12c-0.1,0.2-0.2,0.2-0.3,0.2c-0.2,0-0.3-0.1-0.3-0.3
		c0-0.1,0-0.2,0.1-0.3l7.2-10.7c-0.6,0.4-1.3,0.5-2.1,0.5c-0.8,0-1.6-0.3-2.3-0.8c0.1,0.4,0.2,1,0.2,1.7c0,2.4-0.7,3.5-2.2,3.5
		c-1.5,0-2.2-1.2-2.2-3.5c0-2.4,0.7-3.6,2.2-3.6c0.8,0,1.4,0.4,1.7,1.1c0.9,0.8,1.7,1.2,2.6,1.2c1.2,0,2.2-0.5,3-1.5
		c0.1-0.2,0.2-0.2,0.3-0.2C203.7,239.2,203.8,239.3,203.8,239.6z M197.1,242.8c0-1.2,0-1.7,0-1.6c0-0.7-0.1-1.2-0.3-1.5
		c-0.2-0.2-0.5-0.4-0.7-0.6c-0.1,0-0.2-0.1-0.4-0.1c-0.6,0-0.9,0.3-1.1,1c-0.1,0.3-0.1,0.9-0.1,1.7v1.1c0,1.8,0.4,2.7,1.3,2.7
		C196.6,245.5,197.1,244.6,197.1,242.8z M205.8,247.8c0,2.4-0.7,3.5-2.2,3.5c-1.5,0-2.2-1.2-2.2-3.5c0-2.4,0.7-3.6,2.2-3.6
		C205.1,244.2,205.8,245.4,205.8,247.8z M204.9,248.3v-1.1c0-0.8,0-1.3-0.1-1.7c-0.2-0.7-0.6-1-1.1-1c-0.6,0-0.9,0.3-1.1,1
		c-0.1,0.3-0.1,0.9-0.1,1.7v1.1c0,1.8,0.4,2.7,1.3,2.7C204.5,251,204.9,250.1,204.9,248.3z"/>
</g>
<g>
	<path class="st9" d="M216,249.2c-0.3-0.6-0.5-1.3-0.5-2s0.2-1.4,0.5-2c0.3-0.6,0.8-1.1,1.3-1.5c0.6-0.4,1.3-0.5,2-0.5
		s1.4,0.2,2,0.5c0.6,0.4,1,0.9,1.3,1.5c0.3,0.6,0.5,1.3,0.5,2s-0.2,1.4-0.5,2s-0.8,1.1-1.3,1.5s-1.3,0.5-2,0.5s-1.4-0.2-2-0.5
		S216.3,249.8,216,249.2z M216.8,247.2c0,0.8,0.2,1.5,0.7,2.1c0.5,0.6,1.1,0.9,1.9,0.9c0.5,0,1-0.1,1.4-0.4c0.4-0.3,0.7-0.6,0.9-1.1
		c0.2-0.4,0.3-0.9,0.3-1.5c0-0.5-0.1-1-0.3-1.5c-0.2-0.4-0.5-0.8-0.9-1.1c-0.4-0.3-0.9-0.4-1.4-0.4s-1,0.1-1.4,0.4
		c-0.4,0.3-0.7,0.6-0.9,1.1C216.9,246.1,216.8,246.6,216.8,247.2z"/>
	<path class="st9" d="M224.2,244.3v-1h1.3v-0.6c0-0.8,0.2-1.4,0.6-1.8c0.4-0.4,0.9-0.7,1.6-0.7c0.7,0,1.2,0.2,1.6,0.6l-0.5,0.8
		c-0.3-0.2-0.6-0.4-0.9-0.4c-0.4,0-0.7,0.1-0.9,0.4c-0.2,0.3-0.3,0.6-0.3,1.1v0.6h1.6v1h-1.6v6.7h-1.2v-6.7H224.2z"/>
	<path class="st9" d="M233.4,247.2c0-1.2,0.3-2.2,1-3c0.6-0.7,1.5-1.1,2.5-1.1c0.5,0,1,0.1,1.4,0.4c0.4,0.2,0.8,0.6,1.2,1v-4.1h1.2
		V251h-1.2v-1.1c-0.3,0.4-0.7,0.7-1.1,1c-0.5,0.2-0.9,0.4-1.5,0.4c-1,0-1.9-0.4-2.5-1.1S233.4,248.4,233.4,247.2z M235.3,245
		c-0.4,0.6-0.7,1.3-0.7,2.2s0.2,1.6,0.7,2.1c0.4,0.6,1.1,0.8,1.8,0.8c0.5,0,0.9-0.1,1.3-0.4c0.4-0.2,0.8-0.5,1-0.9v-3.5
		c-0.2-0.3-0.5-0.6-1-0.9c-0.4-0.2-0.9-0.4-1.3-0.4C236.4,244.2,235.8,244.5,235.3,245z"/>
	<path class="st9" d="M242.6,248.7c0-0.4,0.1-0.8,0.2-1.1c0.2-0.3,0.4-0.6,0.6-0.8s0.5-0.4,0.8-0.5s0.6-0.2,1-0.2c1.1,0,2,0.3,2.6,1
		v-1.4c0-0.5-0.2-0.9-0.5-1.2s-0.8-0.4-1.4-0.4c-0.9,0-1.7,0.4-2.4,1.1l-0.6-0.8c0.8-0.9,1.8-1.3,3.1-1.3c0.4,0,0.8,0,1.2,0.1
		c0.4,0.1,0.7,0.2,0.9,0.4c0.3,0.2,0.5,0.5,0.6,0.8c0.2,0.3,0.2,0.7,0.2,1.2v5.3h-1.2v-0.9c-0.6,0.7-1.5,1.1-2.6,1.1
		c-0.3,0-0.6-0.1-1-0.2c-0.3-0.1-0.6-0.3-0.9-0.5c-0.3-0.2-0.5-0.5-0.6-0.8C242.7,249.4,242.6,249.1,242.6,248.7z M243.8,248.7
		c0,0.5,0.2,0.9,0.5,1.2s0.8,0.5,1.4,0.5c0.4,0,0.8-0.1,1.2-0.2c0.4-0.2,0.7-0.4,0.9-0.7v-1.5c-0.2-0.3-0.5-0.5-0.9-0.7
		c-0.4-0.2-0.8-0.2-1.2-0.2c-0.6,0-1,0.2-1.4,0.5S243.8,248.2,243.8,248.7z"/>
	<path class="st9" d="M250.4,244.3v-1h1.3v-2.1h1.2v2.1h1.6v1h-1.6v4.8c0,0.3,0.1,0.5,0.2,0.7c0.1,0.2,0.3,0.3,0.6,0.3
		c0.4,0,0.6-0.1,0.8-0.3l0.4,0.9c-0.3,0.3-0.8,0.5-1.4,0.5c-0.6,0-1-0.2-1.3-0.5c-0.3-0.3-0.4-0.8-0.4-1.3v-5.1H250.4z"/>
	<path class="st9" d="M255.7,248.7c0-0.4,0.1-0.8,0.2-1.1c0.2-0.3,0.4-0.6,0.6-0.8s0.5-0.4,0.8-0.5s0.6-0.2,1-0.2c1.1,0,2,0.3,2.6,1
		v-1.4c0-0.5-0.2-0.9-0.5-1.2s-0.8-0.4-1.4-0.4c-0.9,0-1.7,0.4-2.4,1.1l-0.6-0.8c0.8-0.9,1.8-1.3,3.1-1.3c0.4,0,0.8,0,1.2,0.1
		c0.4,0.1,0.7,0.2,0.9,0.4c0.3,0.2,0.5,0.5,0.6,0.8c0.2,0.3,0.2,0.7,0.2,1.2v5.3H261v-0.9c-0.6,0.7-1.5,1.1-2.6,1.1
		c-0.3,0-0.6-0.1-1-0.2c-0.3-0.1-0.6-0.3-0.9-0.5c-0.3-0.2-0.5-0.5-0.6-0.8C255.8,249.4,255.7,249.1,255.7,248.7z M256.9,248.7
		c0,0.5,0.2,0.9,0.5,1.2s0.8,0.5,1.4,0.5c0.4,0,0.8-0.1,1.2-0.2c0.4-0.2,0.7-0.4,0.9-0.7v-1.5c-0.2-0.3-0.5-0.5-0.9-0.7
		c-0.4-0.2-0.8-0.2-1.2-0.2c-0.6,0-1,0.2-1.4,0.5S256.9,248.2,256.9,248.7z"/>
</g>
<g class="st10">
	<path class="st9" d="M366.3,227.7c0,0.7-0.1,1.3-0.4,1.8c-0.3,0.7-0.8,1-1.5,1c-0.7,0-1.1-0.3-1.4-1c-0.2-0.4-0.3-1-0.4-1.9
		c-0.5,0.2-1,0.2-1.5,0.2c-1.5,0-2.7-0.6-3.7-1.7c-1-1.1-1.4-2.4-1.4-3.9c0-1.5,0.5-2.8,1.4-3.9c1-1.2,2.2-1.7,3.7-1.7
		c1.5,0,2.7,0.6,3.7,1.7c0.9,1.1,1.4,2.4,1.4,3.9c0,1.1-0.3,2.1-0.8,3c-0.6,1-1.3,1.7-2.3,2.1c0.3,1,0.8,1.5,1.5,1.5
		c0.7,0,1.2-0.4,1.4-1.3c0-0.2,0.1-0.3,0.2-0.3C366.2,227.4,366.3,227.5,366.3,227.7z M364.7,222.4c0-2.4-0.7-4-2-4.8
		c-0.5-0.3-1-0.5-1.5-0.5c-0.5,0-1,0.1-1.5,0.4c-1.4,0.8-2.1,2.4-2.1,4.8c0,1.1,0.2,2.1,0.5,2.9c0.4,1,1.1,1.7,2,2.1
		c-0.1-0.2-0.2-0.5-0.2-0.7c0-0.4,0.1-0.7,0.4-0.9c0.2-0.3,0.5-0.4,0.9-0.4c0.8,0,1.3,0.5,1.7,1.6
		C364.1,226,364.7,224.5,364.7,222.4z M362.5,227.2c-0.2-1-0.6-1.5-1.3-1.5c-0.3,0-0.5,0.1-0.7,0.3s-0.3,0.4-0.3,0.7
		c0,0.3,0.1,0.5,0.3,0.7s0.4,0.3,0.7,0.3C361.6,227.5,362,227.4,362.5,227.2z"/>
</g>
<g class="st10">
	<path class="st9" d="M375.7,228.4c0,0.9-0.4,1.7-1.1,2.3c-0.7,0.6-1.5,0.9-2.4,0.9c-0.8,0-1.6-0.2-2.2-0.6
		c-0.7-0.5-1.1-1.1-1.1-1.9c0-0.3,0.1-0.5,0.2-0.7s0.4-0.3,0.7-0.3c0.3,0,0.5,0.1,0.7,0.3s0.3,0.4,0.3,0.7c0,0.3-0.1,0.5-0.3,0.6
		s-0.4,0.2-0.7,0.2c-0.1,0-0.1,0-0.2,0c0.2,0.4,0.6,0.7,1.1,0.9c0.4,0.2,0.9,0.3,1.4,0.3c0.7,0,1.1-0.3,1.5-0.9
		c0.2-0.5,0.4-1.1,0.4-1.8c0-0.8-0.1-1.4-0.4-1.8c-0.3-0.6-0.8-0.9-1.5-0.9h-0.8c-0.2,0-0.3-0.1-0.3-0.2c0-0.1,0.1-0.2,0.4-0.2
		c0.2,0,0.3,0,0.5,0c0.6,0,1.1-0.3,1.4-0.8c0.3-0.5,0.5-1.1,0.5-1.9c0-0.5-0.1-1-0.4-1.3c-0.3-0.4-0.7-0.5-1.2-0.5
		c-1,0-1.7,0.3-2.2,1c0.7,0,1,0.3,1,0.8c0,0.2-0.1,0.4-0.2,0.6s-0.4,0.2-0.6,0.2c-0.2,0-0.5-0.1-0.6-0.2s-0.2-0.4-0.2-0.6
		c0-0.7,0.3-1.2,1-1.7c0.6-0.4,1.2-0.6,1.9-0.6c0.7,0,1.4,0.2,2,0.6c0.7,0.4,1,1,1,1.7c0,0.7-0.2,1.3-0.7,1.8
		c-0.4,0.5-1,0.9-1.6,1.1c0.8,0.2,1.4,0.5,1.9,1C375.5,227.1,375.7,227.7,375.7,228.4z"/>
</g>
<g class="st10">
	<path class="st9" d="M303.5,244v-1h1.3v-0.6c0-0.8,0.2-1.4,0.6-1.8s0.9-0.7,1.6-0.7c0.5,0,0.9,0.1,1.2,0.2l-0.3,0.9
		c-0.2-0.1-0.4-0.2-0.7-0.2c-0.4,0-0.7,0.1-0.9,0.4c-0.2,0.3-0.3,0.6-0.3,1.1v0.6h1.6v1H306v6.7h-1.2V244H303.5z M309.1,241.7
		c-0.2-0.2-0.2-0.3-0.2-0.6s0.1-0.4,0.2-0.6s0.3-0.2,0.6-0.2s0.4,0.1,0.6,0.2s0.2,0.4,0.2,0.6s-0.1,0.4-0.2,0.6
		c-0.2,0.2-0.3,0.2-0.6,0.2S309.2,241.8,309.1,241.7z M309,250.7V243h1.2v7.7H309z"/>
	<path class="st9" d="M312.6,250.7V243h1.2v1.2c0.3-0.4,0.7-0.8,1.2-1c0.4-0.3,0.9-0.4,1.4-0.4v1.2c-0.2,0-0.3,0-0.5,0
		c-0.4,0-0.8,0.1-1.2,0.4c-0.4,0.3-0.7,0.5-0.9,0.9v5.5H312.6z"/>
	<path class="st9" d="M317.2,249.7l0.6-0.9c0.3,0.3,0.6,0.6,1.1,0.8c0.5,0.2,0.9,0.3,1.4,0.3c0.6,0,1-0.1,1.4-0.4
		c0.3-0.2,0.5-0.6,0.5-1c0-0.2-0.1-0.5-0.3-0.6c-0.2-0.2-0.4-0.3-0.7-0.4s-0.6-0.2-0.9-0.3c-0.3-0.1-0.7-0.2-1-0.3
		c-0.3-0.1-0.7-0.2-0.9-0.4s-0.5-0.4-0.7-0.6c-0.2-0.3-0.3-0.6-0.3-1c0-0.6,0.3-1.2,0.8-1.6c0.5-0.4,1.2-0.6,2.1-0.6
		c1.2,0,2.1,0.4,2.9,1.1l-0.6,0.8c-0.2-0.3-0.6-0.5-1-0.7s-0.9-0.3-1.3-0.3c-0.5,0-0.9,0.1-1.2,0.4c-0.3,0.2-0.5,0.5-0.5,0.9
		c0,0.2,0.1,0.4,0.3,0.6c0.2,0.2,0.4,0.3,0.7,0.4c0.3,0.1,0.6,0.2,0.9,0.3c0.3,0.1,0.7,0.2,1,0.3c0.3,0.1,0.7,0.2,0.9,0.4
		c0.3,0.2,0.5,0.4,0.7,0.7s0.3,0.6,0.3,1c0,0.7-0.3,1.2-0.8,1.7c-0.5,0.4-1.3,0.7-2.2,0.7C319.1,250.9,318,250.5,317.2,249.7z"/>
	<path class="st9" d="M324.3,244v-1h1.3v-2.1h1.2v2.1h1.6v1h-1.6v4.8c0,0.3,0.1,0.5,0.2,0.7c0.1,0.2,0.3,0.3,0.6,0.3
		c0.4,0,0.6-0.1,0.8-0.3l0.4,0.9c-0.3,0.3-0.8,0.5-1.4,0.5c-0.6,0-1-0.2-1.3-0.5c-0.3-0.3-0.4-0.8-0.4-1.3V244H324.3z"/>
</g>
<g class="st10">
	<path class="st9" d="M343.8,240.3c0,0.2,0,0.3-0.1,0.5l-2.2,3.1c-0.5,0.7-0.8,1.6-1,2.8c-0.1,0.8-0.2,2-0.2,3.5
		c0,0.6-0.2,0.9-0.8,0.9c-0.5,0-0.7-0.3-0.7-0.9c0-2,0.7-4,2-6.1c0.4-0.6,1-1.4,1.8-2.6h-3.9c-0.6,0-1,0-1.1,0.1
		c-0.1,0.1-0.3,0.6-0.4,1.5h-0.4l0.5-3.4h0.4c0,0.1,0,0.2,0.1,0.3c0.2,0.2,0.8,0.3,2,0.3h4V240.3z"/>
	<path class="st9" d="M351.5,247.4c0,1-0.3,1.8-1,2.6c-0.7,0.7-1.5,1.1-2.5,1.1c-0.8,0-1.5-0.3-2.1-0.9s-0.9-1.3-0.9-2.1
		c0-0.6,0.3-0.9,0.8-0.9c0.2,0,0.4,0.1,0.6,0.2c0.2,0.2,0.2,0.3,0.2,0.6s-0.1,0.4-0.2,0.6c-0.2,0.2-0.4,0.2-0.6,0.2
		c-0.1,0-0.2,0-0.3,0c0.2,0.5,0.5,1,0.9,1.3c0.5,0.3,0.9,0.5,1.5,0.5c0.8,0,1.3-0.4,1.8-1.1c0.3-0.4,0.4-1.2,0.4-2.2
		c0-0.9-0.1-1.6-0.3-2c-0.3-0.7-0.8-1-1.4-1c-0.5,0-0.9,0.1-1.2,0.3c-0.2,0.1-0.5,0.3-0.7,0.6c-0.2,0.2-0.3,0.3-0.4,0.3
		c-0.2,0-0.2-0.1-0.2-0.3v-5.1c0-0.2,0.1-0.3,0.2-0.3c0,0,0.1,0,0.2,0c0.9,0.3,1.6,0.5,2.2,0.5c0.7,0,1.4-0.2,2.2-0.5
		c0.1,0,0.1,0,0.1,0c0.1,0,0.2,0.1,0.2,0.2c0,0.1-0.1,0.2-0.3,0.4c-0.8,0.8-1.7,1.3-2.9,1.3c-0.4,0-0.9-0.1-1.4-0.2v3.2
		c0.6-0.6,1.3-0.8,2.1-0.8c0.9,0,1.7,0.4,2.3,1.1C351.2,245.7,351.5,246.5,351.5,247.4z"/>
	<path class="st9" d="M362.9,239.2c0,0.1,0,0.2-0.1,0.3l-8.1,12c-0.1,0.2-0.2,0.2-0.3,0.2c-0.2,0-0.3-0.1-0.3-0.3
		c0-0.1,0-0.2,0.1-0.3l7.2-10.7c-0.6,0.4-1.3,0.5-2.1,0.5c-0.8,0-1.6-0.3-2.3-0.8c0.1,0.4,0.2,1,0.2,1.7c0,2.4-0.7,3.5-2.2,3.5
		c-1.5,0-2.2-1.2-2.2-3.5c0-2.4,0.7-3.6,2.2-3.6c0.8,0,1.4,0.4,1.7,1.1c0.9,0.8,1.7,1.2,2.6,1.2c1.2,0,2.2-0.5,3-1.5
		c0.1-0.2,0.2-0.2,0.3-0.2C362.8,238.9,362.9,239,362.9,239.2z M356.1,242.5c0-1.2,0-1.7,0-1.6c0-0.7-0.1-1.2-0.3-1.5
		c-0.2-0.2-0.5-0.4-0.7-0.6c-0.1,0-0.2-0.1-0.4-0.1c-0.6,0-0.9,0.3-1.1,1c-0.1,0.3-0.1,0.9-0.1,1.7v1.1c0,1.8,0.4,2.7,1.3,2.7
		C355.7,245.2,356.1,244.3,356.1,242.5z M364.9,247.4c0,2.4-0.7,3.5-2.2,3.5c-1.5,0-2.2-1.2-2.2-3.5c0-2.4,0.7-3.6,2.2-3.6
		C364.1,243.9,364.9,245,364.9,247.4z M363.9,248v-1.1c0-0.8,0-1.3-0.1-1.7c-0.2-0.7-0.6-1-1.1-1c-0.6,0-0.9,0.3-1.1,1
		c-0.1,0.3-0.1,0.9-0.1,1.7v1.1c0,1.8,0.4,2.7,1.3,2.7C363.5,250.7,363.9,249.8,363.9,248z"/>
</g>
<g>
	<path class="st9" d="M375.1,248.9c-0.3-0.6-0.5-1.3-0.5-2s0.2-1.4,0.5-2c0.3-0.6,0.8-1.1,1.3-1.5c0.6-0.4,1.3-0.5,2-0.5
		s1.4,0.2,2,0.5c0.6,0.4,1,0.9,1.3,1.5c0.3,0.6,0.5,1.3,0.5,2s-0.2,1.4-0.5,2s-0.8,1.1-1.3,1.5s-1.3,0.5-2,0.5s-1.4-0.2-2-0.5
		S375.4,249.5,375.1,248.9z M375.9,246.8c0,0.8,0.2,1.5,0.7,2.1c0.5,0.6,1.1,0.9,1.9,0.9c0.5,0,1-0.1,1.4-0.4
		c0.4-0.3,0.7-0.6,0.9-1.1c0.2-0.4,0.3-0.9,0.3-1.5c0-0.5-0.1-1-0.3-1.5c-0.2-0.4-0.5-0.8-0.9-1.1c-0.4-0.3-0.9-0.4-1.4-0.4
		s-1,0.1-1.4,0.4c-0.4,0.3-0.7,0.6-0.9,1.1C376,245.8,375.9,246.3,375.9,246.8z"/>
	<path class="st9" d="M383.3,244v-1h1.3v-0.6c0-0.8,0.2-1.4,0.6-1.8c0.4-0.4,0.9-0.7,1.6-0.7c0.7,0,1.2,0.2,1.6,0.6l-0.5,0.8
		c-0.3-0.2-0.6-0.4-0.9-0.4c-0.4,0-0.7,0.1-0.9,0.4c-0.2,0.3-0.3,0.6-0.3,1.1v0.6h1.6v1h-1.6v6.7h-1.2V244H383.3z"/>
	<path class="st9" d="M392.4,246.9c0-1.2,0.3-2.2,1-3s1.5-1.1,2.5-1.1c0.5,0,1,0.1,1.4,0.4c0.5,0.2,0.8,0.6,1.2,1V240h1.2v10.7h-1.2
		v-1.1c-0.3,0.4-0.7,0.7-1.1,1c-0.5,0.2-0.9,0.4-1.5,0.4c-1,0-1.9-0.4-2.5-1.1S392.4,248.1,392.4,246.9z M394.4,244.7
		c-0.4,0.6-0.7,1.3-0.7,2.2s0.2,1.6,0.7,2.1c0.4,0.6,1.1,0.8,1.8,0.8c0.5,0,0.9-0.1,1.3-0.4c0.4-0.2,0.8-0.5,1-0.9v-3.5
		c-0.2-0.3-0.5-0.6-1-0.9c-0.4-0.2-0.9-0.4-1.3-0.4C395.4,243.9,394.8,244.1,394.4,244.7z"/>
	<path class="st9" d="M401.7,248.3c0-0.4,0.1-0.8,0.2-1.1c0.2-0.3,0.4-0.6,0.6-0.8s0.5-0.4,0.8-0.5s0.6-0.2,1-0.2c1.1,0,2,0.3,2.6,1
		v-1.4c0-0.5-0.2-0.9-0.5-1.2s-0.8-0.4-1.4-0.4c-0.9,0-1.7,0.4-2.4,1.1l-0.6-0.8c0.8-0.9,1.8-1.3,3.1-1.3c0.4,0,0.8,0,1.2,0.1
		c0.3,0.1,0.7,0.2,0.9,0.4s0.5,0.5,0.6,0.8c0.2,0.3,0.2,0.7,0.2,1.2v5.3h-1.2v-0.9c-0.6,0.7-1.5,1.1-2.6,1.1c-0.3,0-0.6-0.1-1-0.2
		c-0.3-0.1-0.6-0.3-0.9-0.5c-0.3-0.2-0.5-0.5-0.6-0.8C401.7,249.1,401.7,248.8,401.7,248.3z M402.9,248.3c0,0.5,0.2,0.9,0.5,1.2
		s0.8,0.5,1.4,0.5c0.4,0,0.8-0.1,1.2-0.2c0.4-0.2,0.7-0.4,0.9-0.7v-1.5c-0.2-0.3-0.5-0.5-0.9-0.7c-0.4-0.2-0.8-0.2-1.2-0.2
		c-0.6,0-1,0.2-1.4,0.5C403,247.5,402.9,247.9,402.9,248.3z"/>
	<path class="st9" d="M409.5,244v-1h1.3v-2.1h1.2v2.1h1.6v1H412v4.8c0,0.3,0.1,0.5,0.2,0.7c0.1,0.2,0.3,0.3,0.6,0.3
		c0.4,0,0.6-0.1,0.8-0.3l0.4,0.9c-0.3,0.3-0.8,0.5-1.4,0.5c-0.6,0-1-0.2-1.3-0.5s-0.4-0.8-0.4-1.3V244H409.5z"/>
	<path class="st9" d="M414.8,248.3c0-0.4,0.1-0.8,0.2-1.1c0.2-0.3,0.4-0.6,0.6-0.8s0.5-0.4,0.8-0.5s0.6-0.2,1-0.2c1.1,0,2,0.3,2.6,1
		v-1.4c0-0.5-0.2-0.9-0.5-1.2s-0.8-0.4-1.4-0.4c-0.9,0-1.7,0.4-2.4,1.1l-0.6-0.8c0.8-0.9,1.8-1.3,3.1-1.3c0.4,0,0.8,0,1.2,0.1
		c0.3,0.1,0.7,0.2,0.9,0.4s0.5,0.5,0.6,0.8c0.2,0.3,0.2,0.7,0.2,1.2v5.3H420v-0.9c-0.6,0.7-1.5,1.1-2.6,1.1c-0.3,0-0.6-0.1-1-0.2
		c-0.3-0.1-0.6-0.3-0.9-0.5c-0.3-0.2-0.5-0.5-0.6-0.8C414.9,249.1,414.8,248.8,414.8,248.3z M416,248.3c0,0.5,0.2,0.9,0.5,1.2
		s0.8,0.5,1.4,0.5c0.4,0,0.8-0.1,1.2-0.2c0.4-0.2,0.7-0.4,0.9-0.7v-1.5c-0.2-0.3-0.5-0.5-0.9-0.7c-0.4-0.2-0.8-0.2-1.2-0.2
		c-0.6,0-1,0.2-1.4,0.5C416.2,247.5,416,247.9,416,248.3z"/>
</g>
<g id="g12197" transform="matrix(-.71214 0 0 -.71214 325.42 1036)">
	<g id="g12199" transform="matrix(0 1 -1 0 -9.0805 129.38)">
		<path id="path12201" inkscape:connector-curvature="0" class="st11" d="M1097.2,29.4l4.9-4.9"/>
		<path id="path12203" inkscape:connector-curvature="0" class="st11" d="M1102.1,24.5l-4.9-4.9"/>
	</g>
</g>
<g class="st10">
	<path class="st9" d="M537.3,86c-0.3-0.6-0.5-1.3-0.5-2s0.2-1.4,0.5-2c0.3-0.6,0.8-1.1,1.3-1.5c0.6-0.4,1.3-0.5,2-0.5s1.4,0.2,2,0.5
		c0.6,0.4,1,0.9,1.3,1.5c0.3,0.6,0.5,1.3,0.5,2s-0.2,1.4-0.5,2s-0.8,1.1-1.3,1.5s-1.3,0.5-2,0.5s-1.4-0.2-2-0.5S537.7,86.6,537.3,86
		z M538.2,84c0,0.8,0.2,1.5,0.7,2.1c0.5,0.6,1.1,0.9,1.9,0.9c0.5,0,1-0.1,1.4-0.4c0.4-0.3,0.7-0.6,0.9-1.1c0.2-0.4,0.3-0.9,0.3-1.5
		c0-0.5-0.1-1-0.3-1.5s-0.5-0.8-0.9-1.1c-0.4-0.3-0.9-0.4-1.4-0.4s-1,0.1-1.4,0.4c-0.4,0.3-0.7,0.6-0.9,1.1
		C538.3,83,538.2,83.5,538.2,84z"/>
	<path class="st9" d="M546.5,85.6v-5.5h1.2v5.1c0,0.6,0.1,1.1,0.4,1.4c0.3,0.3,0.7,0.4,1.3,0.4c0.4,0,0.9-0.1,1.3-0.3
		c0.4-0.2,0.7-0.5,1-0.8v-5.7h1.2v7.7h-1.2v-1.1c-0.3,0.4-0.7,0.7-1.2,0.9s-1,0.4-1.5,0.4C547.3,88.1,546.5,87.2,546.5,85.6z"/>
	<path class="st9" d="M554.2,81.2v-1h1.3V78h1.2v2.1h1.6v1h-1.6V86c0,0.3,0.1,0.5,0.2,0.7s0.3,0.3,0.6,0.3c0.4,0,0.6-0.1,0.8-0.3
		l0.4,0.9c-0.3,0.3-0.8,0.5-1.4,0.5c-0.6,0-1-0.2-1.3-0.5c-0.3-0.3-0.4-0.8-0.4-1.3v-5.1H554.2z"/>
	<path class="st9" d="M560,87.9V77.2h1.2v10.7H560z"/>
	<path class="st9" d="M563.6,78.8c-0.2-0.2-0.2-0.3-0.2-0.6s0.1-0.4,0.2-0.6s0.4-0.2,0.6-0.2s0.4,0.1,0.6,0.2s0.2,0.4,0.2,0.6
		s-0.1,0.4-0.2,0.6s-0.3,0.2-0.6,0.2S563.8,79,563.6,78.8z M563.6,87.9v-7.7h1.2v7.7H563.6z"/>
	<path class="st9" d="M566.7,84c0-0.7,0.2-1.4,0.5-2c0.3-0.6,0.8-1.1,1.4-1.5c0.6-0.4,1.2-0.5,2-0.5c0.8,0,1.4,0.2,2,0.6
		c0.6,0.4,1,0.9,1.3,1.5s0.4,1.3,0.4,2.1v0.3H568c0,0.8,0.3,1.4,0.8,1.9c0.5,0.5,1.1,0.8,2,0.8c0.5,0,0.9-0.1,1.3-0.3
		s0.8-0.4,1.1-0.7l0.6,0.8c-0.8,0.8-1.8,1.2-3.1,1.2c-1.2,0-2.1-0.4-2.8-1.1S566.7,85.2,566.7,84z M568,83.5h5.1
		c0-0.3-0.1-0.6-0.2-0.9s-0.3-0.6-0.5-0.8s-0.5-0.5-0.8-0.6s-0.7-0.2-1.1-0.2c-0.4,0-0.8,0.1-1.1,0.2c-0.3,0.2-0.6,0.4-0.8,0.6
		c-0.2,0.3-0.4,0.5-0.5,0.8C568.1,82.9,568,83.2,568,83.5z"/>
	<path class="st9" d="M576.2,87.9v-7.7h1.2v1.2c0.3-0.4,0.7-0.8,1.2-1s0.9-0.4,1.4-0.4v1.2c-0.2,0-0.3,0-0.5,0
		c-0.4,0-0.8,0.1-1.2,0.4s-0.7,0.5-0.9,0.9v5.5H576.2z"/>
	<path class="st9" d="M580.8,86.8l0.6-0.9c0.3,0.3,0.6,0.6,1.1,0.8c0.5,0.2,0.9,0.3,1.4,0.3c0.6,0,1-0.1,1.4-0.4
		c0.3-0.2,0.5-0.6,0.5-1c0-0.2-0.1-0.5-0.3-0.6s-0.4-0.3-0.7-0.4c-0.3-0.1-0.6-0.2-0.9-0.3c-0.3-0.1-0.7-0.2-1-0.3s-0.7-0.2-0.9-0.4
		s-0.5-0.4-0.7-0.6s-0.3-0.6-0.3-1c0-0.6,0.3-1.2,0.8-1.6c0.5-0.4,1.2-0.6,2.1-0.6c1.2,0,2.1,0.4,2.9,1.1l-0.6,0.8
		c-0.2-0.3-0.6-0.5-1-0.7s-0.9-0.3-1.3-0.3c-0.5,0-0.9,0.1-1.2,0.4s-0.5,0.5-0.5,0.9c0,0.2,0.1,0.4,0.3,0.6c0.2,0.2,0.4,0.3,0.7,0.4
		c0.3,0.1,0.6,0.2,0.9,0.3c0.3,0.1,0.7,0.2,1,0.3c0.3,0.1,0.7,0.2,0.9,0.4c0.3,0.2,0.5,0.4,0.7,0.7s0.3,0.6,0.3,1
		c0,0.7-0.3,1.2-0.8,1.7c-0.5,0.4-1.3,0.7-2.2,0.7C582.6,88.1,581.6,87.6,580.8,86.8z"/>
</g>
<g id="Group-5" transform="matrix(0 -.50497 .50497 0 441.29 883.13)">
	<path id="Stroke-1" inkscape:connector-curvature="0" class="st5" d="M1543.4,200.5c4.4,0,8,2.7,8,6v28.5c0,3.3,3.6,6,8,6"/>
	<path id="Stroke-3" inkscape:connector-curvature="0" class="st5" d="M1543.4,281.3c4.4,0,8-2.7,8-6v-28.5c0-3.3,3.6-6,8-6"/>
</g>
<path id="path12306" inkscape:connector-curvature="0" inkscape:original-d="m 334.94248,941.282 c 0,0 0,28.0401 0,31.76195 0,3.72185 -1.12127,9.17339 0,12.90033 1.12127,3.72694 5.76674,8.71647 5.76674,8.71647" inkscape:path-effect="#path-effect12308" sodipodi:nodetypes="cssc" class="st5" d="
	M348.9,159.9v31.8c0,2.2-0.1,4.3-0.2,6.5c-0.1,2.2-0.2,4.3,0.2,6.4c0.6,3.5,2.8,6.7,5.8,8.7"/>
<g>
	<g>
		<line class="st0" x1="535.1" y1="115.3" x2="533.6" y2="115.3"/>
		<line class="st12" x1="527.7" y1="115.3" x2="477.6" y2="115.3"/>
		<polyline class="st0" points="474.6,115.3 473.1,115.3 473.2,115.3 471.7,115.3 		"/>
		<line class="st13" x1="466.3" y1="115.3" x2="436.8" y2="115.3"/>
		<line class="st0" x1="434.1" y1="115.3" x2="432.6" y2="115.3"/>
	</g>
</g>
<path inkscape:connector-curvature="0" class="st3" d="M432.6,128v-25.3"/>
<g>
	
		<path id="path12112_1_" inkscape:connector-curvature="0" inkscape:original-d="m 172.5653,915.8077 c 0,0 0.40277,6.19831 0,9.25786 -0.41312,3.13805 -0.87503,6.43075 -2.45762,9.17182 -1.56692,2.71394 -6.64779,6.64782 -6.64779,6.64782" inkscape:path-effect="#path-effect12195" sodipodi:nodetypes="cssc" class="st5" d="
		M195.9,90.4c0.3-3.1,0.3-6.2,0-9.3c-0.3-3.2-1-6.4-2.5-9.2c-1.5-2.8-3.8-5.1-6.6-6.6"/>
	<g id="g12114_1_" transform="matrix(-.71214 0 0 -.71214 162.6 1010.7)">
		<g id="g12116_1_" transform="matrix(0 1 -1 0 -9.0805 129.38)">
			<path id="path12118_1_" inkscape:connector-curvature="0" class="st11" d="M1166.8,42.5l-4.9-4.9"/>
			<path id="path12120_1_" inkscape:connector-curvature="0" class="st11" d="M1161.9,37.7l4.9-4.9"/>
		</g>
	</g>
</g>
<g>
	
		<path id="path12112_2_" inkscape:connector-curvature="0" inkscape:original-d="m 172.5653,915.8077 c 0,0 0.40277,6.19831 0,9.25786 -0.41312,3.13805 -0.87503,6.43075 -2.45762,9.17182 -1.56692,2.71394 -6.64779,6.64782 -6.64779,6.64782" inkscape:path-effect="#path-effect12195" sodipodi:nodetypes="cssc" class="st5" d="
		M432.6,90.4c-0.3-3.1-0.3-6.2,0-9.3c0.3-3.2,1-6.4,2.5-9.2c1.5-2.8,3.8-5.1,6.6-6.6"/>
	<g id="g12114_2_" transform="matrix(-.71214 0 0 -.71214 162.6 1010.7)">
		<g id="g12116_2_" transform="matrix(0 1 -1 0 -9.0805 129.38)">
			<path id="path12118_2_" inkscape:connector-curvature="0" class="st11" d="M1166.8,365.2l-4.9,4.9"/>
			<path id="path12120_2_" inkscape:connector-curvature="0" class="st11" d="M1161.9,370.1l4.9,4.9"/>
		</g>
	</g>
</g>
</svg>
